<svg width="70" height="120" viewBox="0 0 70 120" fill="none" xmlns="http://www.w3.org/2000/svg">
<rect x="0.5" y="0.5" width="69" height="119" rx="4.5" stroke="#8A38F5" stroke-dasharray="10 5"/>
<rect x="20" y="20" width="30" height="30" rx="15" fill="white"/>
<path opacity="0.2" d="M33.5 28.25V41.75L26.75 35L33.5 28.25Z" fill="black"/>
<path d="M43.2501 34.2501H34.2501V28.2501C34.2502 28.1017 34.2063 27.9566 34.1239 27.8331C34.0415 27.7097 33.9243 27.6134 33.7872 27.5566C33.6501 27.4998 33.4992 27.485 33.3536 27.514C33.2081 27.5429 33.0744 27.6145 32.9695 27.7195L26.2195 34.4695C26.1497 34.5391 26.0944 34.6218 26.0567 34.7129C26.0189 34.8039 25.9995 34.9015 25.9995 35.0001C25.9995 35.0987 26.0189 35.1963 26.0567 35.2873C26.0944 35.3784 26.1497 35.4611 26.2195 35.5307L32.9695 42.2807C33.0744 42.3857 33.2081 42.4573 33.3536 42.4862C33.4992 42.5152 33.6501 42.5004 33.7872 42.4436C33.9243 42.3868 34.0415 42.2905 34.1239 42.1671C34.2063 42.0436 34.2502 41.8985 34.2501 41.7501V35.7501H43.2501C43.449 35.7501 43.6398 35.6711 43.7804 35.5304C43.9211 35.3898 44.0001 35.199 44.0001 35.0001C44.0001 34.8012 43.9211 34.6104 43.7804 34.4698C43.6398 34.3291 43.449 34.2501 43.2501 34.2501ZM32.7501 39.9398L27.8104 35.0001L32.7501 30.0604V39.9398Z" fill="black"/>
</svg>
