<svg width="114" height="64" viewBox="0 0 114 64" fill="none" xmlns="http://www.w3.org/2000/svg">
<rect x="0.5" y="0.5" width="113" height="63" rx="4.5" stroke="#8A38F5" stroke-dasharray="10 5"/>
<path opacity="0.2" d="M38.75 24.5V30.4156C38.75 34.1375 35.7734 37.2219 32.0516 37.25C31.1608 37.2568 30.2775 37.0872 29.4526 36.7511C28.6277 36.4149 27.8775 35.9188 27.2452 35.2913C26.613 34.6638 26.1111 33.9174 25.7687 33.0951C25.4263 32.2728 25.25 31.3908 25.25 30.5V24.5H38.75Z" fill="black"/>
<path d="M41.75 26H39.5V24.5C39.5 24.3011 39.421 24.1103 39.2803 23.9697C39.1397 23.829 38.9489 23.75 38.75 23.75H25.25C25.0511 23.75 24.8603 23.829 24.7197 23.9697C24.579 24.1103 24.5 24.3011 24.5 24.5V26H22.25C21.8522 26 21.4706 26.158 21.1893 26.4393C20.908 26.7206 20.75 27.1022 20.75 27.5V29C20.75 29.9946 21.1451 30.9484 21.8483 31.6517C22.1966 31.9999 22.61 32.2761 23.0649 32.4645C23.5199 32.653 24.0075 32.75 24.5 32.75H24.8422C25.284 34.1501 26.1263 35.39 27.2652 36.3166C28.404 37.2431 29.7893 37.8157 31.25 37.9634V40.25H29C28.8011 40.25 28.6103 40.329 28.4697 40.4697C28.329 40.6103 28.25 40.8011 28.25 41C28.25 41.1989 28.329 41.3897 28.4697 41.5303C28.6103 41.671 28.8011 41.75 29 41.75H35C35.1989 41.75 35.3897 41.671 35.5303 41.5303C35.671 41.3897 35.75 41.1989 35.75 41C35.75 40.8011 35.671 40.6103 35.5303 40.4697C35.3897 40.329 35.1989 40.25 35 40.25H32.75V37.9606C35.7444 37.6578 38.2288 35.5569 39.1325 32.75H39.5C40.4946 32.75 41.4484 32.3549 42.1516 31.6517C42.8549 30.9484 43.25 29.9946 43.25 29V27.5C43.25 27.1022 43.092 26.7206 42.8107 26.4393C42.5294 26.158 42.1478 26 41.75 26ZM24.5 31.25C23.9033 31.25 23.331 31.0129 22.909 30.591C22.4871 30.169 22.25 29.5967 22.25 29V27.5H24.5V30.5C24.5 30.75 24.5122 31 24.5366 31.25H24.5ZM38 30.4156C38 33.7456 35.2812 36.4756 32 36.5C30.4087 36.5 28.8826 35.8679 27.7574 34.7426C26.6321 33.6174 26 32.0913 26 30.5V25.25H38V30.4156ZM41.75 29C41.75 29.5967 41.5129 30.169 41.091 30.591C40.669 31.0129 40.0967 31.25 39.5 31.25H39.4531C39.4839 30.9729 39.4995 30.6944 39.5 30.4156V27.5H41.75V29Z" fill="black"/>
<path opacity="0.2" d="M73 23.75H79V40.25H73V23.75ZM85 28.25V40.25H91V28.25H85Z" fill="black"/>
<path d="M92.5 39.5H91.75V28.25C91.75 28.0511 91.671 27.8603 91.5303 27.7197C91.3897 27.579 91.1989 27.5 91 27.5H85C84.8011 27.5 84.6103 27.579 84.4697 27.7197C84.329 27.8603 84.25 28.0511 84.25 28.25V32H79.75V23.75C79.75 23.5511 79.671 23.3603 79.5303 23.2197C79.3897 23.079 79.1989 23 79 23H73C72.8011 23 72.6103 23.079 72.4697 23.2197C72.329 23.3603 72.25 23.5511 72.25 23.75V39.5H71.5C71.3011 39.5 71.1103 39.579 70.9697 39.7197C70.829 39.8603 70.75 40.0511 70.75 40.25C70.75 40.4489 70.829 40.6397 70.9697 40.7803C71.1103 40.921 71.3011 41 71.5 41H92.5C92.6989 41 92.8897 40.921 93.0303 40.7803C93.171 40.6397 93.25 40.4489 93.25 40.25C93.25 40.0511 93.171 39.8603 93.0303 39.7197C92.8897 39.579 92.6989 39.5 92.5 39.5ZM85.75 29H90.25V39.5H85.75V29ZM84.25 33.5V39.5H79.75V33.5H84.25ZM73.75 24.5H78.25V39.5H73.75V24.5ZM76.75 26.75V28.25C76.75 28.4489 76.671 28.6397 76.5303 28.7803C76.3897 28.921 76.1989 29 76 29C75.8011 29 75.6103 28.921 75.4697 28.7803C75.329 28.6397 75.25 28.4489 75.25 28.25V26.75C75.25 26.5511 75.329 26.3603 75.4697 26.2197C75.6103 26.079 75.8011 26 76 26C76.1989 26 76.3897 26.079 76.5303 26.2197C76.671 26.3603 76.75 26.5511 76.75 26.75ZM76.75 31.25V32.75C76.75 32.9489 76.671 33.1397 76.5303 33.2803C76.3897 33.421 76.1989 33.5 76 33.5C75.8011 33.5 75.6103 33.421 75.4697 33.2803C75.329 33.1397 75.25 32.9489 75.25 32.75V31.25C75.25 31.0511 75.329 30.8603 75.4697 30.7197C75.6103 30.579 75.8011 30.5 76 30.5C76.1989 30.5 76.3897 30.579 76.5303 30.7197C76.671 30.8603 76.75 31.0511 76.75 31.25ZM76.75 35.75V37.25C76.75 37.4489 76.671 37.6397 76.5303 37.7803C76.3897 37.921 76.1989 38 76 38C75.8011 38 75.6103 37.921 75.4697 37.7803C75.329 37.6397 75.25 37.4489 75.25 37.25V35.75C75.25 35.5511 75.329 35.3603 75.4697 35.2197C75.6103 35.079 75.8011 35 76 35C76.1989 35 76.3897 35.079 76.5303 35.2197C76.671 35.3603 76.75 35.5511 76.75 35.75ZM81.25 37.25V35.75C81.25 35.5511 81.329 35.3603 81.4697 35.2197C81.6103 35.079 81.8011 35 82 35C82.1989 35 82.3897 35.079 82.5303 35.2197C82.671 35.3603 82.75 35.5511 82.75 35.75V37.25C82.75 37.4489 82.671 37.6397 82.5303 37.7803C82.3897 37.921 82.1989 38 82 38C81.8011 38 81.6103 37.921 81.4697 37.7803C81.329 37.6397 81.25 37.4489 81.25 37.25ZM87.25 37.25V35.75C87.25 35.5511 87.329 35.3603 87.4697 35.2197C87.6103 35.079 87.8011 35 88 35C88.1989 35 88.3897 35.079 88.5303 35.2197C88.671 35.3603 88.75 35.5511 88.75 35.75V37.25C88.75 37.4489 88.671 37.6397 88.5303 37.7803C88.3897 37.921 88.1989 38 88 38C87.8011 38 87.6103 37.921 87.4697 37.7803C87.329 37.6397 87.25 37.4489 87.25 37.25ZM87.25 32.75V31.25C87.25 31.0511 87.329 30.8603 87.4697 30.7197C87.6103 30.579 87.8011 30.5 88 30.5C88.1989 30.5 88.3897 30.579 88.5303 30.7197C88.671 30.8603 88.75 31.0511 88.75 31.25V32.75C88.75 32.9489 88.671 33.1397 88.5303 33.2803C88.3897 33.421 88.1989 33.5 88 33.5C87.8011 33.5 87.6103 33.421 87.4697 33.2803C87.329 33.1397 87.25 32.9489 87.25 32.75Z" fill="black"/>
</svg>
