<svg width="244" height="64" viewBox="0 0 244 64" fill="none" xmlns="http://www.w3.org/2000/svg">
<rect x="0.5" y="0.5" width="243" height="63" rx="4.5" stroke="#8A38F5" stroke-dasharray="10 5"/>
<path opacity="0.2" d="M40.25 31.2501V40.2501H34.25V34.2501H29.75V40.2501H23.75V31.2501C23.7499 31.1516 23.7693 31.054 23.8069 30.963C23.8445 30.8719 23.8997 30.7892 23.9694 30.7195L31.4694 23.2195C31.539 23.1497 31.6217 23.0944 31.7128 23.0567C31.8038 23.0189 31.9014 22.9995 32 22.9995C32.0986 22.9995 32.1962 23.0189 32.2872 23.0567C32.3783 23.0944 32.461 23.1497 32.5306 23.2195L40.0306 30.7195C40.1003 30.7892 40.1555 30.8719 40.1931 30.963C40.2307 31.054 40.2501 31.1516 40.25 31.2501Z" fill="black"/>
<path d="M40.5603 30.1887L33.0603 22.6887C32.779 22.4077 32.3977 22.2498 32 22.2498C31.6024 22.2498 31.221 22.4077 30.9397 22.6887L23.4397 30.1887C23.2997 30.3277 23.1888 30.493 23.1133 30.6752C23.0378 30.8574 22.9993 31.0528 23 31.25V40.25C23 40.4489 23.079 40.6397 23.2197 40.7803C23.3603 40.921 23.5511 41 23.75 41H29.75C29.9489 41 30.1397 40.921 30.2803 40.7803C30.421 40.6397 30.5 40.4489 30.5 40.25V35H33.5V40.25C33.5 40.4489 33.579 40.6397 33.7197 40.7803C33.8603 40.921 34.0511 41 34.25 41H40.25C40.4489 41 40.6397 40.921 40.7803 40.7803C40.921 40.6397 41 40.4489 41 40.25V31.25C41.0007 31.0528 40.9622 30.8574 40.8867 30.6752C40.8112 30.493 40.7003 30.3277 40.5603 30.1887ZM39.5 39.5H35V34.25C35 34.0511 34.921 33.8603 34.7803 33.7197C34.6397 33.579 34.4489 33.5 34.25 33.5H29.75C29.5511 33.5 29.3603 33.579 29.2197 33.7197C29.079 33.8603 29 34.0511 29 34.25V39.5H24.5V31.25L32 23.75L39.5 31.25V39.5Z" fill="black"/>
<path opacity="0.2" d="M101.75 26.75L99.3471 35.4012C99.2596 35.7165 99.0715 35.9944 98.8113 36.1928C98.5512 36.3912 98.2333 36.499 97.9062 36.5H88.6399C88.3122 36.4999 87.9935 36.3924 87.7326 36.1939C87.4717 35.9955 87.2829 35.7171 87.1953 35.4012L84.7915 26.75H101.75Z" fill="black"/>
<path d="M89.75 40.25C89.75 40.5467 89.662 40.8367 89.4972 41.0834C89.3324 41.33 89.0981 41.5223 88.824 41.6358C88.5499 41.7494 88.2483 41.7791 87.9574 41.7212C87.6664 41.6633 87.3991 41.5204 87.1893 41.3107C86.9796 41.1009 86.8367 40.8336 86.7788 40.5426C86.7209 40.2517 86.7506 39.9501 86.8642 39.676C86.9777 39.4019 87.17 39.1676 87.4166 39.0028C87.6633 38.838 87.9533 38.75 88.25 38.75C88.6478 38.75 89.0294 38.908 89.3107 39.1893C89.592 39.4706 89.75 39.8522 89.75 40.25ZM98 38.75C97.7033 38.75 97.4133 38.838 97.1666 39.0028C96.92 39.1676 96.7277 39.4019 96.6142 39.676C96.5006 39.9501 96.4709 40.2517 96.5288 40.5426C96.5867 40.8336 96.7296 41.1009 96.9393 41.3107C97.1491 41.5204 97.4164 41.6633 97.7074 41.7212C97.9983 41.7791 98.2999 41.7494 98.574 41.6358C98.8481 41.5223 99.0824 41.33 99.2472 41.0834C99.412 40.8367 99.5 40.5467 99.5 40.25C99.5 39.8522 99.342 39.4706 99.0607 39.1893C98.7794 38.908 98.3978 38.75 98 38.75ZM102.473 26.9506L100.069 35.6019C99.9369 36.0745 99.6542 36.4911 99.2639 36.7885C98.8736 37.0859 98.397 37.2479 97.9062 37.25H88.64C88.1478 37.2498 87.6693 37.0886 87.2772 36.791C86.8852 36.4935 86.6013 36.0758 86.4688 35.6019L83.18 23.75H81.5C81.3011 23.75 81.1103 23.671 80.9697 23.5303C80.829 23.3897 80.75 23.1989 80.75 23C80.75 22.8011 80.829 22.6103 80.9697 22.4697C81.1103 22.329 81.3011 22.25 81.5 22.25H83.75C83.914 22.25 84.0734 22.3037 84.204 22.4029C84.3345 22.5021 84.429 22.6414 84.4728 22.7994L85.3616 26H101.75C101.866 26 101.98 26.0267 102.083 26.078C102.187 26.1294 102.277 26.204 102.347 26.2961C102.417 26.3881 102.465 26.4951 102.487 26.6086C102.508 26.7222 102.504 26.8392 102.473 26.9506ZM100.763 27.5H85.7787L87.9172 35.2006C87.961 35.3586 88.0555 35.4979 88.186 35.5971C88.3166 35.6963 88.476 35.75 88.64 35.75H97.9062C98.0702 35.75 98.2297 35.6963 98.3602 35.5971C98.4908 35.4979 98.5852 35.3586 98.6291 35.2006L100.763 27.5Z" fill="black"/>
<path opacity="0.2" d="M161.75 29.5625C161.75 35.75 152 41 152 41C152 41 142.25 35.75 142.25 29.5625C142.25 28.2198 142.783 26.9322 143.733 25.9828C144.682 25.0334 145.97 24.5 147.312 24.5C149.43 24.5 151.244 25.6541 152 27.5C152.756 25.6541 154.57 24.5 156.688 24.5C158.03 24.5 159.318 25.0334 160.267 25.9828C161.217 26.9322 161.75 28.2198 161.75 29.5625Z" fill="black"/>
<path d="M156.688 23.75C154.752 23.75 153.057 24.5825 152 25.9897C150.943 24.5825 149.248 23.75 147.312 23.75C145.771 23.7517 144.294 24.3647 143.204 25.4544C142.115 26.544 141.502 28.0215 141.5 29.5625C141.5 36.125 151.23 41.4369 151.645 41.6562C151.754 41.715 151.876 41.7458 152 41.7458C152.124 41.7458 152.246 41.715 152.355 41.6562C152.77 41.4369 162.5 36.125 162.5 29.5625C162.498 28.0215 161.885 26.544 160.796 25.4544C159.706 24.3647 158.229 23.7517 156.688 23.75ZM152 40.1375C150.288 39.14 143 34.5959 143 29.5625C143.001 28.4192 143.456 27.3232 144.265 26.5147C145.073 25.7063 146.169 25.2515 147.312 25.25C149.136 25.25 150.667 26.2213 151.306 27.7812C151.363 27.9188 151.459 28.0365 151.582 28.1193C151.706 28.2021 151.851 28.2463 152 28.2463C152.149 28.2463 152.294 28.2021 152.418 28.1193C152.541 28.0365 152.637 27.9188 152.694 27.7812C153.333 26.2184 154.864 25.25 156.688 25.25C157.831 25.2515 158.927 25.7063 159.735 26.5147C160.544 27.3232 160.999 28.4192 161 29.5625C161 34.5884 153.71 39.1391 152 40.1375Z" fill="black"/>
<path opacity="0.2" d="M218 29C218 30.1867 217.648 31.3467 216.989 32.3334C216.33 33.3201 215.392 34.0892 214.296 34.5433C213.2 34.9974 211.993 35.1162 210.829 34.8847C209.666 34.6532 208.596 34.0818 207.757 33.2426C206.918 32.4035 206.347 31.3344 206.115 30.1705C205.884 29.0067 206.003 27.8003 206.457 26.7039C206.911 25.6075 207.68 24.6705 208.667 24.0112C209.653 23.3519 210.813 23 212 23C213.591 23 215.117 23.6321 216.243 24.7574C217.368 25.8826 218 27.4087 218 29Z" fill="black"/>
<path d="M221.649 39.8751C220.221 37.4067 218.021 35.6367 215.453 34.7976C216.723 34.0415 217.71 32.8893 218.262 31.518C218.814 30.1468 218.9 28.6322 218.508 27.207C218.116 25.7818 217.267 24.5247 216.091 23.6287C214.916 22.7328 213.478 22.2476 212 22.2476C210.522 22.2476 209.085 22.7328 207.909 23.6287C206.733 24.5247 205.884 25.7818 205.492 27.207C205.1 28.6322 205.186 30.1468 205.738 31.518C206.29 32.8893 207.277 34.0415 208.547 34.7976C205.98 35.6357 203.779 37.4057 202.351 39.8751C202.299 39.9605 202.264 40.0555 202.249 40.1545C202.234 40.2535 202.239 40.3545 202.264 40.4516C202.288 40.5487 202.332 40.6399 202.393 40.7197C202.453 40.7996 202.529 40.8666 202.616 40.9167C202.702 40.9667 202.798 40.999 202.898 41.0114C202.997 41.0238 203.098 41.0163 203.194 40.9891C203.291 40.9619 203.381 40.9157 203.459 40.8532C203.537 40.7907 203.602 40.7131 203.65 40.6251C205.416 37.5726 208.538 35.7501 212 35.7501C215.462 35.7501 218.584 37.5726 220.35 40.6251C220.398 40.7131 220.463 40.7907 220.541 40.8532C220.62 40.9157 220.71 40.9619 220.806 40.9891C220.902 41.0163 221.003 41.0238 221.103 41.0114C221.202 40.999 221.298 40.9667 221.385 40.9167C221.471 40.8666 221.547 40.7996 221.608 40.7197C221.668 40.6399 221.712 40.5487 221.737 40.4516C221.761 40.3545 221.766 40.2535 221.751 40.1545C221.736 40.0555 221.701 39.9605 221.649 39.8751ZM206.75 29.0001C206.75 27.9618 207.058 26.9467 207.635 26.0834C208.212 25.22 209.032 24.5471 209.991 24.1497C210.95 23.7524 212.006 23.6484 213.024 23.851C214.043 24.0536 214.978 24.5536 215.712 25.2878C216.447 26.022 216.947 26.9575 217.149 27.9759C217.352 28.9943 217.248 30.0499 216.85 31.0092C216.453 31.9685 215.78 32.7884 214.917 33.3653C214.054 33.9422 213.038 34.2501 212 34.2501C210.608 34.2486 209.274 33.695 208.289 32.7108C207.305 31.7265 206.752 30.392 206.75 29.0001Z" fill="black"/>
</svg>
