<svg width="129" height="234" viewBox="0 0 129 234" fill="none" xmlns="http://www.w3.org/2000/svg">
<rect x="0.5" y="0.5" width="128" height="233" rx="4.5" stroke="#8A38F5" stroke-dasharray="10 5"/>
<path d="M76.774 36.1862C76.0864 35.4495 75.2547 34.8621 74.3305 34.4605C73.4063 34.0588 72.4093 33.8516 71.4016 33.8516C70.3939 33.8516 69.397 34.0588 68.4728 34.4605C67.5485 34.8621 66.7168 35.4495 66.0293 36.1862C65.3879 36.8605 64.8703 37.6423 64.5 38.496C64.1294 37.6431 63.6118 36.8621 62.9707 36.1885C62.2831 35.4518 61.4514 34.8644 60.5272 34.4627C59.603 34.0611 58.606 33.8538 57.5983 33.8538C56.5906 33.8538 55.5937 34.0611 54.6694 34.4627C53.7452 34.8644 52.9135 35.4518 52.2259 36.1885C52.1507 36.2681 52.0958 36.3647 52.0659 36.47C52.036 36.5754 52.032 36.6864 52.0542 36.7937C52.0765 36.9009 52.1243 37.0012 52.1936 37.0859C52.263 37.1707 52.3518 37.2375 52.4525 37.2805L59.4567 40.3278C59.2471 40.3663 59.0375 40.4116 58.8291 40.4671C57.824 40.7304 56.8811 41.1902 56.0547 41.8199C55.2283 42.4497 54.535 43.237 54.0147 44.1363C53.4908 45.0301 53.1509 46.0194 53.0147 47.0464C52.8785 48.0733 52.9489 49.1171 53.2217 50.1164C53.2507 50.2241 53.3057 50.3231 53.382 50.4044C53.4583 50.4858 53.5534 50.5472 53.659 50.5832C53.7294 50.6069 53.8032 50.6192 53.8776 50.6194C54.0266 50.6194 54.1715 50.5705 54.2899 50.4801L63.8203 43.2131V55.375C63.8203 55.5552 63.8919 55.7281 64.0194 55.8556C64.1468 55.983 64.3197 56.0546 64.5 56.0546C64.6802 56.0546 64.8531 55.983 64.9806 55.8556C65.108 55.7281 65.1797 55.5552 65.1797 55.375V43.2131L74.7145 50.4778C74.833 50.5682 74.9779 50.6172 75.1269 50.6171C75.2012 50.6169 75.2751 50.6047 75.3455 50.5809C75.4511 50.5449 75.5462 50.4836 75.6225 50.4022C75.6987 50.3208 75.7538 50.2219 75.7828 50.1142C76.0556 49.1148 76.1259 48.071 75.9898 47.0441C75.8536 46.0172 75.5136 45.0278 74.9898 44.1341C74.4695 43.2347 73.7761 42.4475 72.9498 41.8177C72.1234 41.1879 71.1804 40.7281 70.1754 40.4649C69.9669 40.4094 69.7573 40.3641 69.5478 40.3255L76.552 37.2783C76.6527 37.2352 76.7415 37.1685 76.8108 37.0837C76.8802 36.9989 76.928 36.8986 76.9503 36.7914C76.9725 36.6841 76.9685 36.5731 76.9386 36.4678C76.9087 36.3624 76.8538 36.2658 76.7785 36.1862H76.774ZM57.5989 35.2109C58.422 35.2128 59.2361 35.3835 59.9907 35.7124C60.7453 36.0413 61.4245 36.5214 61.9863 37.1231C62.9233 38.1109 63.5349 39.3622 63.7387 40.7084L53.9569 36.457C54.9996 35.6501 56.2804 35.2118 57.5989 35.2109ZM54.3375 48.7287C54.1967 47.3679 54.4935 45.9977 55.1849 44.8171C55.6169 44.0728 56.192 43.4214 56.8769 42.9003C57.5619 42.3793 58.3431 41.9989 59.1758 41.7812C59.7344 41.6316 60.3102 41.5555 60.8886 41.5546C61.6792 41.5543 62.4634 41.6974 63.2029 41.9772L54.3375 48.7287ZM73.8151 44.8171C74.5064 45.9977 74.8032 47.3679 74.6624 48.7287L65.7993 41.976C67.2559 41.4282 68.8592 41.4128 70.326 41.9327C71.7928 42.4526 73.0287 43.4743 73.8151 44.8171ZM65.2612 40.7084C65.465 39.3622 66.0766 38.1109 67.0137 37.1231C67.5755 36.5214 68.2546 36.0413 69.0092 35.7124C69.7639 35.3835 70.5779 35.2128 71.4011 35.2109C72.7195 35.2118 74.0004 35.6501 75.0431 36.457L65.2612 40.7084Z" fill="black"/>
<path d="M42.1322 79V68.8182H45.9504C46.7326 68.8182 47.3888 68.9541 47.9191 69.2259C48.4527 69.4976 48.8554 69.8788 49.1272 70.3693C49.4023 70.8565 49.5399 71.425 49.5399 72.0746C49.5399 72.7275 49.4007 73.2943 49.1222 73.7749C48.8472 74.2521 48.4411 74.6217 47.9042 74.8835C47.3673 75.142 46.7077 75.2713 45.9255 75.2713H43.2061V73.7401H45.6769C46.1343 73.7401 46.5088 73.6771 46.8005 73.5511C47.0922 73.4219 47.3076 73.2346 47.4468 72.9893C47.5893 72.7408 47.6606 72.4358 47.6606 72.0746C47.6606 71.7133 47.5893 71.4051 47.4468 71.1499C47.3043 70.8913 47.0872 70.6958 46.7955 70.5632C46.5039 70.4273 46.1277 70.3594 45.667 70.3594H43.9767V79H42.1322ZM47.3921 74.3864L49.9127 79H47.8545L45.3786 74.3864H47.3921ZM54.4294 79.1491C53.6638 79.1491 53.0026 78.9901 52.4458 78.6719C51.8923 78.3504 51.4664 77.8963 51.1681 77.3097C50.8698 76.7197 50.7206 76.0253 50.7206 75.2266C50.7206 74.4411 50.8698 73.7517 51.1681 73.1584C51.4697 72.5618 51.8906 72.0978 52.4308 71.7663C52.9711 71.4316 53.6058 71.2642 54.335 71.2642C54.8056 71.2642 55.2497 71.3404 55.6673 71.4929C56.0883 71.642 56.4595 71.8741 56.781 72.1889C57.1058 72.5038 57.361 72.9048 57.5466 73.392C57.7322 73.8759 57.825 74.4527 57.825 75.1222V75.674H51.5658V74.4609H56.0999C56.0966 74.1162 56.022 73.8097 55.8762 73.5412C55.7303 73.2694 55.5265 73.0556 55.2646 72.8999C55.0061 72.7441 54.7045 72.6662 54.3598 72.6662C53.9919 72.6662 53.6688 72.7557 53.3904 72.9347C53.1119 73.1103 52.8949 73.3423 52.7391 73.6307C52.5866 73.9157 52.5087 74.2289 52.5054 74.5703V75.6293C52.5054 76.0734 52.5866 76.4545 52.749 76.7727C52.9114 77.0876 53.1385 77.3295 53.4301 77.4986C53.7218 77.6643 54.0632 77.7472 54.4543 77.7472C54.7161 77.7472 54.9531 77.7107 55.1652 77.6378C55.3773 77.5616 55.5613 77.4505 55.7171 77.3047C55.8728 77.1589 55.9905 76.9782 56.07 76.7628L57.7504 76.9517C57.6444 77.3958 57.4422 77.7836 57.1439 78.1151C56.8489 78.4432 56.4711 78.6984 56.0104 78.8807C55.5497 79.0597 55.0227 79.1491 54.4294 79.1491ZM62.6686 82.0227C62.0223 82.0227 61.4671 81.9349 61.0031 81.7592C60.5391 81.5869 60.1662 81.3549 59.8845 81.0632C59.6028 80.7715 59.4072 80.4484 59.2979 80.0938L60.9186 79.701C60.9915 79.8501 61.0976 79.9976 61.2368 80.1435C61.376 80.2926 61.5632 80.4152 61.7986 80.5114C62.0372 80.6108 62.3372 80.6605 62.6984 80.6605C63.2088 80.6605 63.6314 80.5362 63.9662 80.2876C64.3009 80.0424 64.4683 79.638 64.4683 79.0746V77.6278H64.3788C64.286 77.8134 64.1501 78.004 63.9711 78.1996C63.7955 78.3951 63.5618 78.5592 63.2702 78.6918C62.9818 78.8243 62.6189 78.8906 62.1814 78.8906C61.5947 78.8906 61.0628 78.7531 60.5855 78.478C60.1115 78.1996 59.7337 77.7853 59.452 77.2351C59.1736 76.6816 59.0344 75.9889 59.0344 75.157C59.0344 74.3184 59.1736 73.6108 59.452 73.0341C59.7337 72.4541 60.1132 72.0149 60.5905 71.7166C61.0677 71.415 61.5997 71.2642 62.1863 71.2642C62.6338 71.2642 63.0017 71.3404 63.29 71.4929C63.5817 71.642 63.8137 71.8227 63.9861 72.0348C64.1584 72.2436 64.2893 72.4408 64.3788 72.6264H64.4782V71.3636H66.2531V79.1243C66.2531 79.7772 66.0973 80.3175 65.7858 80.745C65.4742 81.1726 65.0483 81.4924 64.5081 81.7045C63.9678 81.9167 63.3547 82.0227 62.6686 82.0227ZM62.6835 77.4787C63.0647 77.4787 63.3895 77.3859 63.6579 77.2003C63.9264 77.0147 64.1302 76.7479 64.2694 76.3999C64.4086 76.0518 64.4782 75.6342 64.4782 75.147C64.4782 74.6664 64.4086 74.2455 64.2694 73.8842C64.1336 73.523 63.9314 73.2429 63.6629 73.044C63.3978 72.8419 63.0713 72.7408 62.6835 72.7408C62.2825 72.7408 61.9477 72.8452 61.6792 73.054C61.4108 73.2628 61.2086 73.5495 61.0727 73.9141C60.9368 74.2753 60.8689 74.6863 60.8689 75.147C60.8689 75.6143 60.9368 76.0237 61.0727 76.375C61.2119 76.723 61.4157 76.9948 61.6842 77.1903C61.956 77.3826 62.2891 77.4787 62.6835 77.4787ZM68.0976 79V71.3636H69.8973V79H68.0976ZM69.0024 70.2798C68.7174 70.2798 68.4721 70.1854 68.2666 69.9964C68.0611 69.8042 67.9584 69.5739 67.9584 69.3054C67.9584 69.0336 68.0611 68.8033 68.2666 68.6143C68.4721 68.4221 68.7174 68.326 69.0024 68.326C69.2907 68.326 69.536 68.4221 69.7382 68.6143C69.9437 68.8033 70.0464 69.0336 70.0464 69.3054C70.0464 69.5739 69.9437 69.8042 69.7382 69.9964C69.536 70.1854 69.2907 70.2798 69.0024 70.2798ZM75.0789 79.1491C74.3332 79.1491 73.6869 78.9851 73.14 78.657C72.5931 78.3288 72.1689 77.8698 71.8673 77.2798C71.569 76.6899 71.4198 76.0005 71.4198 75.2116C71.4198 74.4228 71.569 73.7318 71.8673 73.1385C72.1689 72.5452 72.5931 72.0845 73.14 71.7564C73.6869 71.4283 74.3332 71.2642 75.0789 71.2642C75.8247 71.2642 76.471 71.4283 77.0178 71.7564C77.5647 72.0845 77.9873 72.5452 78.2856 73.1385C78.5872 73.7318 78.738 74.4228 78.738 75.2116C78.738 76.0005 78.5872 76.6899 78.2856 77.2798C77.9873 77.8698 77.5647 78.3288 77.0178 78.657C76.471 78.9851 75.8247 79.1491 75.0789 79.1491ZM75.0889 77.7074C75.4932 77.7074 75.8313 77.5964 76.1031 77.3743C76.3749 77.1489 76.577 76.8473 76.7096 76.4695C76.8455 76.0916 76.9134 75.6707 76.9134 75.2067C76.9134 74.7393 76.8455 74.3168 76.7096 73.9389C76.577 73.5578 76.3749 73.2545 76.1031 73.0291C75.8313 72.8037 75.4932 72.6911 75.0889 72.6911C74.6746 72.6911 74.3299 72.8037 74.0548 73.0291C73.783 73.2545 73.5792 73.5578 73.4433 73.9389C73.3107 74.3168 73.2444 74.7393 73.2444 75.2067C73.2444 75.6707 73.3107 76.0916 73.4433 76.4695C73.5792 76.8473 73.783 77.1489 74.0548 77.3743C74.3299 77.5964 74.6746 77.7074 75.0889 77.7074ZM82.0653 74.5256V79H80.2655V71.3636H81.9857V72.6612H82.0752C82.2509 72.2337 82.5309 71.8939 82.9154 71.642C83.3032 71.3902 83.7821 71.2642 84.3522 71.2642C84.8792 71.2642 85.3382 71.3769 85.7293 71.6023C86.1237 71.8277 86.4287 72.1541 86.6441 72.5817C86.8628 73.0092 86.9706 73.5279 86.9672 74.1378V79H85.1675V74.4162C85.1675 73.9058 85.0349 73.5064 84.7698 73.218C84.508 72.9297 84.145 72.7855 83.681 72.7855C83.3662 72.7855 83.0861 72.8551 82.8408 72.9943C82.5989 73.1302 82.4083 73.3274 82.2691 73.5859C82.1332 73.8445 82.0653 74.1577 82.0653 74.5256Z" fill="#1E1D1D"/>
<rect x="37.5" y="95" width="54" height="2" fill="#262323"/>
<path d="M76.774 143.186C76.0864 142.45 75.2547 141.862 74.3305 141.46C73.4063 141.059 72.4093 140.852 71.4016 140.852C70.3939 140.852 69.397 141.059 68.4728 141.46C67.5485 141.862 66.7168 142.45 66.0293 143.186C65.3879 143.86 64.8703 144.642 64.5 145.496C64.1294 144.643 63.6118 143.862 62.9707 143.189C62.2831 142.452 61.4514 141.864 60.5272 141.463C59.603 141.061 58.606 140.854 57.5983 140.854C56.5906 140.854 55.5937 141.061 54.6694 141.463C53.7452 141.864 52.9135 142.452 52.2259 143.189C52.1507 143.268 52.0958 143.365 52.0659 143.47C52.036 143.575 52.032 143.686 52.0542 143.794C52.0765 143.901 52.1243 144.001 52.1936 144.086C52.263 144.171 52.3518 144.237 52.4525 144.281L59.4567 147.328C59.2471 147.366 59.0375 147.412 58.8291 147.467C57.824 147.73 56.8811 148.19 56.0547 148.82C55.2283 149.45 54.535 150.237 54.0147 151.136C53.4908 152.03 53.1509 153.019 53.0147 154.046C52.8785 155.073 52.9489 156.117 53.2217 157.116C53.2507 157.224 53.3057 157.323 53.382 157.404C53.4583 157.486 53.5534 157.547 53.659 157.583C53.7294 157.607 53.8032 157.619 53.8776 157.619C54.0266 157.619 54.1715 157.57 54.2899 157.48L63.8203 150.213V162.375C63.8203 162.555 63.8919 162.728 64.0194 162.856C64.1468 162.983 64.3197 163.055 64.5 163.055C64.6802 163.055 64.8531 162.983 64.9806 162.856C65.108 162.728 65.1797 162.555 65.1797 162.375V150.213L74.7145 157.478C74.833 157.568 74.9779 157.617 75.1269 157.617C75.2012 157.617 75.2751 157.605 75.3455 157.581C75.4511 157.545 75.5462 157.484 75.6225 157.402C75.6987 157.321 75.7538 157.222 75.7828 157.114C76.0556 156.115 76.1259 155.071 75.9898 154.044C75.8536 153.017 75.5136 152.028 74.9898 151.134C74.4695 150.235 73.7761 149.447 72.9498 148.818C72.1234 148.188 71.1804 147.728 70.1754 147.465C69.9669 147.409 69.7573 147.364 69.5478 147.326L76.552 144.278C76.6527 144.235 76.7415 144.168 76.8108 144.084C76.8802 143.999 76.928 143.899 76.9503 143.791C76.9725 143.684 76.9685 143.573 76.9386 143.468C76.9087 143.362 76.8538 143.266 76.7785 143.186H76.774ZM57.5989 142.211C58.422 142.213 59.2361 142.384 59.9907 142.712C60.7453 143.041 61.4245 143.521 61.9863 144.123C62.9233 145.111 63.5349 146.362 63.7387 147.708L53.9569 143.457C54.9996 142.65 56.2804 142.212 57.5989 142.211ZM54.3375 155.729C54.1967 154.368 54.4935 152.998 55.1849 151.817C55.6169 151.073 56.192 150.421 56.8769 149.9C57.5619 149.379 58.3431 148.999 59.1758 148.781C59.7344 148.632 60.3102 148.555 60.8886 148.555C61.6792 148.554 62.4634 148.697 63.2029 148.977L54.3375 155.729ZM73.8151 151.817C74.5064 152.998 74.8032 154.368 74.6624 155.729L65.7993 148.976C67.2559 148.428 68.8592 148.413 70.326 148.933C71.7928 149.453 73.0287 150.474 73.8151 151.817ZM65.2612 147.708C65.465 146.362 66.0766 145.111 67.0137 144.123C67.5755 143.521 68.2546 143.041 69.0092 142.712C69.7639 142.384 70.5779 142.213 71.4011 142.211C72.7195 142.212 74.0004 142.65 75.0431 143.457L65.2612 147.708Z" fill="#696969" fill-opacity="0.588235"/>
<path d="M42.1322 186V175.818H45.9504C46.7326 175.818 47.3888 175.954 47.9191 176.226C48.4527 176.498 48.8554 176.879 49.1272 177.369C49.4023 177.857 49.5399 178.425 49.5399 179.075C49.5399 179.728 49.4007 180.294 49.1222 180.775C48.8472 181.252 48.4411 181.622 47.9042 181.884C47.3673 182.142 46.7077 182.271 45.9255 182.271H43.2061V180.74H45.6769C46.1343 180.74 46.5088 180.677 46.8005 180.551C47.0922 180.422 47.3076 180.235 47.4468 179.989C47.5893 179.741 47.6606 179.436 47.6606 179.075C47.6606 178.713 47.5893 178.405 47.4468 178.15C47.3043 177.891 47.0872 177.696 46.7955 177.563C46.5039 177.427 46.1277 177.359 45.667 177.359H43.9767V186H42.1322ZM47.3921 181.386L49.9127 186H47.8545L45.3786 181.386H47.3921ZM54.4294 186.149C53.6638 186.149 53.0026 185.99 52.4458 185.672C51.8923 185.35 51.4664 184.896 51.1681 184.31C50.8698 183.72 50.7206 183.025 50.7206 182.227C50.7206 181.441 50.8698 180.752 51.1681 180.158C51.4697 179.562 51.8906 179.098 52.4308 178.766C52.9711 178.432 53.6058 178.264 54.335 178.264C54.8056 178.264 55.2497 178.34 55.6673 178.493C56.0883 178.642 56.4595 178.874 56.781 179.189C57.1058 179.504 57.361 179.905 57.5466 180.392C57.7322 180.876 57.825 181.453 57.825 182.122V182.674H51.5658V181.461H56.0999C56.0966 181.116 56.022 180.81 55.8762 180.541C55.7303 180.269 55.5265 180.056 55.2646 179.9C55.0061 179.744 54.7045 179.666 54.3598 179.666C53.9919 179.666 53.6688 179.756 53.3904 179.935C53.1119 180.11 52.8949 180.342 52.7391 180.631C52.5866 180.916 52.5087 181.229 52.5054 181.57V182.629C52.5054 183.073 52.5866 183.455 52.749 183.773C52.9114 184.088 53.1385 184.33 53.4301 184.499C53.7218 184.664 54.0632 184.747 54.4543 184.747C54.7161 184.747 54.9531 184.711 55.1652 184.638C55.3773 184.562 55.5613 184.451 55.7171 184.305C55.8728 184.159 55.9905 183.978 56.07 183.763L57.7504 183.952C57.6444 184.396 57.4422 184.784 57.1439 185.115C56.8489 185.443 56.4711 185.698 56.0104 185.881C55.5497 186.06 55.0227 186.149 54.4294 186.149ZM62.6686 189.023C62.0223 189.023 61.4671 188.935 61.0031 188.759C60.5391 188.587 60.1662 188.355 59.8845 188.063C59.6028 187.772 59.4072 187.448 59.2979 187.094L60.9186 186.701C60.9915 186.85 61.0976 186.998 61.2368 187.143C61.376 187.293 61.5632 187.415 61.7986 187.511C62.0372 187.611 62.3372 187.661 62.6984 187.661C63.2088 187.661 63.6314 187.536 63.9662 187.288C64.3009 187.042 64.4683 186.638 64.4683 186.075V184.628H64.3788C64.286 184.813 64.1501 185.004 63.9711 185.2C63.7955 185.395 63.5618 185.559 63.2702 185.692C62.9818 185.824 62.6189 185.891 62.1814 185.891C61.5947 185.891 61.0628 185.753 60.5855 185.478C60.1115 185.2 59.7337 184.785 59.452 184.235C59.1736 183.682 59.0344 182.989 59.0344 182.157C59.0344 181.318 59.1736 180.611 59.452 180.034C59.7337 179.454 60.1132 179.015 60.5905 178.717C61.0677 178.415 61.5997 178.264 62.1863 178.264C62.6338 178.264 63.0017 178.34 63.29 178.493C63.5817 178.642 63.8137 178.823 63.9861 179.035C64.1584 179.244 64.2893 179.441 64.3788 179.626H64.4782V178.364H66.2531V186.124C66.2531 186.777 66.0973 187.317 65.7858 187.745C65.4742 188.173 65.0483 188.492 64.5081 188.705C63.9678 188.917 63.3547 189.023 62.6686 189.023ZM62.6835 184.479C63.0647 184.479 63.3895 184.386 63.6579 184.2C63.9264 184.015 64.1302 183.748 64.2694 183.4C64.4086 183.052 64.4782 182.634 64.4782 182.147C64.4782 181.666 64.4086 181.246 64.2694 180.884C64.1336 180.523 63.9314 180.243 63.6629 180.044C63.3978 179.842 63.0713 179.741 62.6835 179.741C62.2825 179.741 61.9477 179.845 61.6792 180.054C61.4108 180.263 61.2086 180.549 61.0727 180.914C60.9368 181.275 60.8689 181.686 60.8689 182.147C60.8689 182.614 60.9368 183.024 61.0727 183.375C61.2119 183.723 61.4157 183.995 61.6842 184.19C61.956 184.383 62.2891 184.479 62.6835 184.479ZM68.0976 186V178.364H69.8973V186H68.0976ZM69.0024 177.28C68.7174 177.28 68.4721 177.185 68.2666 176.996C68.0611 176.804 67.9584 176.574 67.9584 176.305C67.9584 176.034 68.0611 175.803 68.2666 175.614C68.4721 175.422 68.7174 175.326 69.0024 175.326C69.2907 175.326 69.536 175.422 69.7382 175.614C69.9437 175.803 70.0464 176.034 70.0464 176.305C70.0464 176.574 69.9437 176.804 69.7382 176.996C69.536 177.185 69.2907 177.28 69.0024 177.28ZM75.0789 186.149C74.3332 186.149 73.6869 185.985 73.14 185.657C72.5931 185.329 72.1689 184.87 71.8673 184.28C71.569 183.69 71.4198 183 71.4198 182.212C71.4198 181.423 71.569 180.732 71.8673 180.138C72.1689 179.545 72.5931 179.085 73.14 178.756C73.6869 178.428 74.3332 178.264 75.0789 178.264C75.8247 178.264 76.471 178.428 77.0178 178.756C77.5647 179.085 77.9873 179.545 78.2856 180.138C78.5872 180.732 78.738 181.423 78.738 182.212C78.738 183 78.5872 183.69 78.2856 184.28C77.9873 184.87 77.5647 185.329 77.0178 185.657C76.471 185.985 75.8247 186.149 75.0789 186.149ZM75.0889 184.707C75.4932 184.707 75.8313 184.596 76.1031 184.374C76.3749 184.149 76.577 183.847 76.7096 183.469C76.8455 183.092 76.9134 182.671 76.9134 182.207C76.9134 181.739 76.8455 181.317 76.7096 180.939C76.577 180.558 76.3749 180.254 76.1031 180.029C75.8313 179.804 75.4932 179.691 75.0889 179.691C74.6746 179.691 74.3299 179.804 74.0548 180.029C73.783 180.254 73.5792 180.558 73.4433 180.939C73.3107 181.317 73.2444 181.739 73.2444 182.207C73.2444 182.671 73.3107 183.092 73.4433 183.469C73.5792 183.847 73.783 184.149 74.0548 184.374C74.3299 184.596 74.6746 184.707 75.0889 184.707ZM82.0653 181.526V186H80.2655V178.364H81.9857V179.661H82.0752C82.2509 179.234 82.5309 178.894 82.9154 178.642C83.3032 178.39 83.7821 178.264 84.3522 178.264C84.8792 178.264 85.3382 178.377 85.7293 178.602C86.1237 178.828 86.4287 179.154 86.6441 179.582C86.8628 180.009 86.9706 180.528 86.9672 181.138V186H85.1675V181.416C85.1675 180.906 85.0349 180.506 84.7698 180.218C84.508 179.93 84.145 179.786 83.681 179.786C83.3662 179.786 83.0861 179.855 82.8408 179.994C82.5989 180.13 82.4083 180.327 82.2691 180.586C82.1332 180.844 82.0653 181.158 82.0653 181.526Z" fill="#696969"/>
</svg>
