<svg width="402" height="866" viewBox="0 0 402 866" fill="none" xmlns="http://www.w3.org/2000/svg">
<g clip-path="url(#clip0_44_1112)">
<rect width="402" height="866" rx="61" fill="url(#paint0_linear_44_1112)"/>
<path d="M61.2666 26.4731C61.9085 26.4731 62.5173 26.5921 63.0928 26.8301C63.6683 27.0625 64.1774 27.4277 64.6201 27.9258C65.0684 28.4183 65.4198 29.0519 65.6743 29.8267C65.9289 30.5959 66.0562 31.5228 66.0562 32.6074V32.624C66.0562 33.9688 65.8625 35.1198 65.4751 36.0771C65.0877 37.0345 64.5316 37.7705 63.8066 38.2852C63.0872 38.7943 62.2267 39.0488 61.2251 39.0488C60.4891 39.0488 59.825 38.916 59.2329 38.6504C58.6463 38.3792 58.1593 38.0085 57.772 37.5381C57.3901 37.0622 57.1328 36.5199 57 35.9111L56.9834 35.8198H59.0835L59.1167 35.9028C59.2218 36.1795 59.3713 36.423 59.5649 36.6333C59.7642 36.8436 60.0021 37.0068 60.2788 37.123C60.561 37.2337 60.8765 37.2891 61.2251 37.2891C61.856 37.2891 62.3706 37.1037 62.769 36.7329C63.173 36.3566 63.4746 35.8558 63.6738 35.2305C63.8786 34.5996 63.9948 33.9023 64.0225 33.1387C64.028 33.0557 64.0308 32.9754 64.0308 32.8979C64.0308 32.8149 64.0308 32.7347 64.0308 32.6572L63.6572 30.6567C63.6572 30.203 63.5521 29.7907 63.3418 29.4199C63.1315 29.0492 62.8465 28.7559 62.4868 28.54C62.1326 28.3242 61.7314 28.2163 61.2832 28.2163C60.8516 28.2163 60.4559 28.3215 60.0962 28.5317C59.7365 28.742 59.4487 29.0298 59.2329 29.395C59.0171 29.7547 58.9092 30.1587 58.9092 30.6069V30.6235C58.9092 31.0884 59.0116 31.5007 59.2163 31.8604C59.4211 32.2145 59.7005 32.494 60.0547 32.6987C60.4089 32.9035 60.8128 33.0059 61.2666 33.0059C61.7204 33.0059 62.1271 32.9062 62.4868 32.707C62.8465 32.5078 63.1315 32.2311 63.3418 31.877C63.5521 31.5228 63.6572 31.1216 63.6572 30.6733V30.6567H64.1553V32.8647H63.8647C63.7209 33.1802 63.5078 33.4735 63.2256 33.7446C62.9434 34.0158 62.5947 34.2344 62.1797 34.4004C61.7702 34.5664 61.2887 34.6494 60.7354 34.6494C59.9717 34.6494 59.2965 34.4779 58.71 34.1348C58.1234 33.7917 57.6613 33.3213 57.3237 32.7236C56.9917 32.126 56.8257 31.4508 56.8257 30.6982V30.6816C56.8257 29.8682 57.0138 29.146 57.3901 28.5151C57.772 27.8787 58.2977 27.3807 58.9673 27.021C59.6424 26.6558 60.4089 26.4731 61.2666 26.4731ZM69.8247 37.1396C69.4484 37.1396 69.133 37.0151 68.8784 36.7661C68.6294 36.5116 68.5049 36.2017 68.5049 35.8364C68.5049 35.4657 68.6294 35.1558 68.8784 34.9067C69.133 34.6522 69.4484 34.5249 69.8247 34.5249C70.2065 34.5249 70.522 34.6522 70.771 34.9067C71.02 35.1558 71.1445 35.4657 71.1445 35.8364C71.1445 36.2017 71.02 36.5116 70.771 36.7661C70.522 37.0151 70.2065 37.1396 69.8247 37.1396ZM69.8247 30.9805C69.4484 30.9805 69.133 30.856 68.8784 30.6069C68.6294 30.3524 68.5049 30.0425 68.5049 29.6772C68.5049 29.3065 68.6294 28.9966 68.8784 28.7476C69.133 28.493 69.4484 28.3657 69.8247 28.3657C70.2065 28.3657 70.522 28.493 70.771 28.7476C71.02 28.9966 71.1445 29.3065 71.1445 29.6772C71.1445 30.0425 71.02 30.3524 70.771 30.6069C70.522 30.856 70.2065 30.9805 69.8247 30.9805ZM79.4038 38.75V36.4507H73.5435V34.6992C73.8589 34.1624 74.1743 33.6229 74.4897 33.0806C74.8107 32.5382 75.1344 31.9987 75.4609 31.4619C75.793 30.9196 76.1222 30.3856 76.4487 29.8599C76.7808 29.3286 77.11 28.8057 77.4365 28.291C77.7686 27.7708 78.1006 27.2645 78.4326 26.772H81.4458V34.6826H83.0645V36.4507H81.4458V38.75H79.4038ZM75.5356 34.7324H79.437V28.4819H79.3125C79.069 28.8582 78.8172 29.2456 78.5571 29.644C78.3026 30.0425 78.0452 30.4492 77.7852 30.8643C77.5251 31.2793 77.2677 31.6971 77.0132 32.1177C76.7586 32.5327 76.5068 32.9505 76.2578 33.3711C76.0088 33.7861 75.7681 34.1984 75.5356 34.6079V34.7324ZM88.02 38.75V28.8804H87.8706L84.8906 30.9805V28.9717L88.02 26.772H90.1533V38.75H88.02Z" fill="black"/>
<path fill-rule="evenodd" clip-rule="evenodd" d="M307.865 27.5329C307.865 26.8999 307.387 26.3867 306.798 26.3867H305.732C305.143 26.3867 304.665 26.8999 304.665 27.5329V37.4669C304.665 38.0999 305.143 38.6131 305.732 38.6131H306.798C307.387 38.6131 307.865 38.0999 307.865 37.4669V27.5329ZM300.431 28.832H301.498C302.087 28.832 302.564 29.3575 302.564 30.0057V37.4394C302.564 38.0876 302.087 38.6131 301.498 38.6131H300.431C299.842 38.6131 299.364 38.0876 299.364 37.4394V30.0057C299.364 29.3575 299.842 28.832 300.431 28.832ZM296.099 31.481H295.032C294.443 31.481 293.966 32.0132 293.966 32.6697V37.4244C293.966 38.0809 294.443 38.6131 295.032 38.6131H296.099C296.688 38.6131 297.166 38.0809 297.166 37.4244V32.6697C297.166 32.0132 296.688 31.481 296.099 31.481ZM290.798 33.9263H289.732C289.143 33.9263 288.665 34.4509 288.665 35.098V37.4414C288.665 38.0885 289.143 38.6131 289.732 38.6131H290.798C291.387 38.6131 291.865 38.0885 291.865 37.4414V35.098C291.865 34.4509 291.387 33.9263 290.798 33.9263Z" fill="black"/>
<path fill-rule="evenodd" clip-rule="evenodd" d="M323.437 28.8022C325.924 28.8023 328.316 29.7244 330.118 31.3779C330.254 31.5055 330.471 31.5039 330.605 31.3743L331.902 30.1108C331.97 30.045 332.007 29.956 332.007 29.8633C332.006 29.7706 331.968 29.682 331.899 29.617C327.168 25.2423 319.704 25.2423 314.973 29.617C314.905 29.6819 314.866 29.7705 314.865 29.8632C314.865 29.9559 314.902 30.045 314.97 30.1108L316.268 31.3743C316.401 31.5041 316.619 31.5057 316.754 31.3779C318.557 29.7243 320.949 28.8022 323.437 28.8022ZM323.433 33.0225C324.791 33.0224 326.099 33.5342 327.106 34.4583C327.242 34.5894 327.456 34.5866 327.589 34.4519L328.876 33.1326C328.944 33.0634 328.981 32.9695 328.98 32.8719C328.979 32.7744 328.94 32.6813 328.871 32.6135C325.807 29.7227 321.062 29.7227 317.998 32.6135C317.929 32.6813 317.89 32.7744 317.889 32.872C317.888 32.9696 317.926 33.0635 317.993 33.1326L319.28 34.4519C319.413 34.5866 319.627 34.5894 319.763 34.4583C320.769 33.5348 322.077 33.0231 323.433 33.0225ZM325.958 35.816C325.96 35.9214 325.922 36.023 325.855 36.0968L323.679 38.5515C323.615 38.6236 323.528 38.6642 323.437 38.6642C323.346 38.6642 323.259 38.6236 323.195 38.5515L321.018 36.0968C320.951 36.0229 320.914 35.9213 320.916 35.816C320.918 35.7106 320.959 35.6108 321.029 35.5402C322.419 34.2263 324.455 34.2263 325.845 35.5402C325.915 35.6109 325.956 35.7107 325.958 35.816Z" fill="black"/>
<rect opacity="0.35" x="339.507" y="26.5" width="24" height="12" rx="3.8" stroke="black"/>
<path opacity="0.4" d="M365.007 30.5V34.5755C365.812 34.2303 366.335 33.4273 366.335 32.5377C366.335 31.6481 365.812 30.8452 365.007 30.5Z" fill="black"/>
<rect x="341.007" y="28" width="21" height="9" rx="2.5" fill="black"/>
<mask id="path-8-outside-1_44_1112" maskUnits="userSpaceOnUse" x="-29" y="781" width="461" height="85" fill="black">
<rect fill="white" x="-29" y="781" width="461" height="85"/>
<path d="M-29 787H432V866H-29V787Z"/>
</mask>
<path d="M-29 787V793H432V787V781H-29V787Z" fill="white" mask="url(#path-8-outside-1_44_1112)"/>
<path d="M432 884H-29V787H432V884Z" fill="#D9D9D9"/>
<rect width="139.938" height="5" rx="2.5" transform="matrix(-1 0 0 1 265.469 853.326)" fill="black"/>
<rect x="40" y="87" width="30" height="30" rx="15" fill="white"/>
<path opacity="0.2" d="M53.5 95.25V108.75L46.75 102L53.5 95.25Z" fill="black"/>
<path d="M63.2501 101.25H54.2501V95.2501C54.2502 95.1017 54.2063 94.9566 54.1239 94.8331C54.0415 94.7097 53.9243 94.6134 53.7872 94.5566C53.6501 94.4998 53.4992 94.485 53.3536 94.514C53.2081 94.5429 53.0744 94.6145 52.9695 94.7195L46.2195 101.469C46.1497 101.539 46.0944 101.622 46.0567 101.713C46.0189 101.804 45.9995 101.902 45.9995 102C45.9995 102.099 46.0189 102.196 46.0567 102.287C46.0944 102.378 46.1497 102.461 46.2195 102.531L52.9695 109.281C53.0744 109.386 53.2081 109.457 53.3536 109.486C53.4992 109.515 53.6501 109.5 53.7872 109.444C53.9243 109.387 54.0415 109.291 54.1239 109.167C54.2063 109.044 54.2502 108.899 54.2501 108.75V102.75H63.2501C63.449 102.75 63.6398 102.671 63.7804 102.53C63.9211 102.39 64.0001 102.199 64.0001 102C64.0001 101.801 63.9211 101.61 63.7804 101.47C63.6398 101.329 63.449 101.25 63.2501 101.25ZM52.7501 106.94L47.8104 102L52.7501 97.0604V106.94Z" fill="black"/>
<rect x="328" y="84" width="30" height="30" rx="15" fill="white"/>
<path opacity="0.2" d="M350.5 96.75V107.25H335.5V96.75H350.5Z" fill="black"/>
<path d="M351.25 97.5001V106.5C351.25 106.898 351.092 107.279 350.811 107.561C350.529 107.842 350.148 108 349.75 108H336.25C335.852 108 335.471 107.842 335.189 107.561C334.908 107.279 334.75 106.898 334.75 106.5V97.5001C334.75 97.1023 334.908 96.7207 335.189 96.4394C335.471 96.1581 335.852 96.0001 336.25 96.0001H338.5C338.699 96.0001 338.89 96.0791 339.03 96.2198C339.171 96.3604 339.25 96.5512 339.25 96.7501C339.25 96.949 339.171 97.1398 339.03 97.2804C338.89 97.4211 338.699 97.5001 338.5 97.5001H336.25V106.5H349.75V97.5001H347.5C347.301 97.5001 347.11 97.4211 346.97 97.2804C346.829 97.1398 346.75 96.949 346.75 96.7501C346.75 96.5512 346.829 96.3604 346.97 96.2198C347.11 96.0791 347.301 96.0001 347.5 96.0001H349.75C350.148 96.0001 350.529 96.1581 350.811 96.4394C351.092 96.7207 351.25 97.1023 351.25 97.5001ZM339.781 93.5307L342.25 91.0604V99.7501C342.25 99.949 342.329 100.14 342.47 100.28C342.61 100.421 342.801 100.5 343 100.5C343.199 100.5 343.39 100.421 343.53 100.28C343.671 100.14 343.75 99.949 343.75 99.7501V91.0604L346.219 93.5307C346.36 93.6715 346.551 93.7505 346.75 93.7505C346.949 93.7505 347.14 93.6715 347.281 93.5307C347.421 93.39 347.5 93.1991 347.5 93.0001C347.5 92.8011 347.421 92.6102 347.281 92.4695L343.531 88.7195C343.461 88.6497 343.378 88.5944 343.287 88.5567C343.196 88.5189 343.099 88.4995 343 88.4995C342.901 88.4995 342.804 88.5189 342.713 88.5567C342.622 88.5944 342.539 88.6497 342.469 88.7195L338.719 92.4695C338.579 92.6102 338.5 92.8011 338.5 93.0001C338.5 93.1991 338.579 93.39 338.719 93.5307C338.86 93.6715 339.051 93.7505 339.25 93.7505C339.449 93.7505 339.64 93.6715 339.781 93.5307Z" fill="black"/>
<g clip-path="url(#clip1_44_1112)">
<mask id="mask0_44_1112" style="mask-type:luminance" maskUnits="userSpaceOnUse" x="-100" y="136" width="603" height="614">
<path d="M503 136H-100V750H503V136Z" fill="white"/>
</mask>
<g mask="url(#mask0_44_1112)">
<g opacity="0.2">
<path d="M293.23 449.983C293.23 503.862 250.334 547.54 197.42 547.54C144.506 547.54 101.61 503.862 101.61 449.983C101.61 396.103 144.506 352.425 197.42 352.425C250.334 352.425 293.23 396.103 293.23 449.983Z" fill="#ED7C20"/>
</g>
<path d="M306.295 449.983C306.295 511.209 257.55 560.844 197.42 560.844C137.29 560.844 88.5449 511.209 88.5449 449.983C88.5449 388.756 137.29 339.122 197.42 339.122C257.55 339.122 306.295 388.756 306.295 449.983Z" stroke="black"/>
<path d="M149.358 450.171L181.276 482.671L245.482 417.294" stroke="white" stroke-width="50" stroke-linecap="round" stroke-linejoin="round"/>
</g>
</g>
</g>
<defs>
<linearGradient id="paint0_linear_44_1112" x1="201" y1="0" x2="201" y2="866" gradientUnits="userSpaceOnUse">
<stop stop-color="#CD2E2E"/>
<stop offset="1" stop-color="#EBEBEB"/>
</linearGradient>
<clipPath id="clip0_44_1112">
<rect width="402" height="866" rx="61" fill="white"/>
</clipPath>
<clipPath id="clip1_44_1112">
<rect width="603" height="614" fill="white" transform="translate(-100 136)"/>
</clipPath>
</defs>
</svg>
