<svg width="122" height="134" viewBox="0 0 122 134" fill="none" xmlns="http://www.w3.org/2000/svg">
<rect x="0.5" y="0.5" width="121" height="133" rx="4.5" stroke="#8A38F5" stroke-dasharray="10 5"/>
<path opacity="0.2" d="M69.25 31.2501V40.2501H63.25V34.2501H58.75V40.2501H52.75V31.2501C52.7499 31.1516 52.7693 31.054 52.8069 30.963C52.8445 30.8719 52.8997 30.7892 52.9694 30.7195L60.4694 23.2195C60.539 23.1497 60.6217 23.0944 60.7128 23.0567C60.8038 23.0189 60.9014 22.9995 61 22.9995C61.0986 22.9995 61.1962 23.0189 61.2872 23.0567C61.3783 23.0944 61.461 23.1497 61.5306 23.2195L69.0306 30.7195C69.1003 30.7892 69.1555 30.8719 69.1931 30.963C69.2307 31.054 69.2501 31.1516 69.25 31.2501Z" fill="black"/>
<path d="M69.5603 30.1887L62.0603 22.6887C61.779 22.4077 61.3977 22.2498 61 22.2498C60.6024 22.2498 60.221 22.4077 59.9397 22.6887L52.4397 30.1887C52.2997 30.3277 52.1888 30.493 52.1133 30.6752C52.0378 30.8574 51.9993 31.0528 52 31.25V40.25C52 40.4489 52.079 40.6397 52.2197 40.7803C52.3603 40.921 52.5511 41 52.75 41H58.75C58.9489 41 59.1397 40.921 59.2803 40.7803C59.421 40.6397 59.5 40.4489 59.5 40.25V35H62.5V40.25C62.5 40.4489 62.579 40.6397 62.7197 40.7803C62.8603 40.921 63.0511 41 63.25 41H69.25C69.4489 41 69.6397 40.921 69.7803 40.7803C69.921 40.6397 70 40.4489 70 40.25V31.25C70.0007 31.0528 69.9622 30.8574 69.8867 30.6752C69.8112 30.493 69.7003 30.3277 69.5603 30.1887ZM68.5 39.5H64V34.25C64 34.0511 63.921 33.8603 63.7803 33.7197C63.6397 33.579 63.4489 33.5 63.25 33.5H58.75C58.5511 33.5 58.3603 33.579 58.2197 33.7197C58.079 33.8603 58 34.0511 58 34.25V39.5H53.5V31.25L61 23.75L68.5 31.25V39.5Z" fill="black"/>
<path d="M47.0819 57.1136V61H45.8077V52.2727H47.0648V55.5199H47.1458C47.2992 55.1676 47.5336 54.8878 47.8489 54.6804C48.1642 54.473 48.5762 54.3693 49.0847 54.3693C49.5336 54.3693 49.9256 54.4616 50.2608 54.6463C50.5989 54.831 50.8603 55.1065 51.0449 55.473C51.2324 55.8366 51.3262 56.2912 51.3262 56.8366V61H50.052V56.9901C50.052 56.5099 49.9284 56.1378 49.6813 55.8736C49.4341 55.6065 49.0904 55.473 48.65 55.473C48.3489 55.473 48.079 55.5369 47.8404 55.6648C47.6046 55.7926 47.4185 55.9801 47.2821 56.2273C47.1486 56.4716 47.0819 56.767 47.0819 57.1136ZM55.7836 61.1321C55.1699 61.1321 54.6344 60.9915 54.177 60.7102C53.7196 60.429 53.3645 60.0355 53.1117 59.5298C52.8588 59.0241 52.7324 58.4332 52.7324 57.7571C52.7324 57.0781 52.8588 56.4844 53.1117 55.9759C53.3645 55.4673 53.7196 55.0724 54.177 54.7912C54.6344 54.5099 55.1699 54.3693 55.7836 54.3693C56.3972 54.3693 56.9327 54.5099 57.3901 54.7912C57.8475 55.0724 58.2026 55.4673 58.4554 55.9759C58.7083 56.4844 58.8347 57.0781 58.8347 57.7571C58.8347 58.4332 58.7083 59.0241 58.4554 59.5298C58.2026 60.0355 57.8475 60.429 57.3901 60.7102C56.9327 60.9915 56.3972 61.1321 55.7836 61.1321ZM55.7878 60.0625C56.1855 60.0625 56.5151 59.9574 56.7765 59.7472C57.0378 59.5369 57.231 59.2571 57.356 58.9077C57.4838 58.5582 57.5478 58.1733 57.5478 57.7528C57.5478 57.3352 57.4838 56.9517 57.356 56.6023C57.231 56.25 57.0378 55.9673 56.7765 55.7543C56.5151 55.5412 56.1855 55.4347 55.7878 55.4347C55.3873 55.4347 55.0549 55.5412 54.7907 55.7543C54.5293 55.9673 54.3347 56.25 54.2069 56.6023C54.0819 56.9517 54.0194 57.3352 54.0194 57.7528C54.0194 58.1733 54.0819 58.5582 54.2069 58.9077C54.3347 59.2571 54.5293 59.5369 54.7907 59.7472C55.0549 59.9574 55.3873 60.0625 55.7878 60.0625ZM60.2569 61V54.4545H61.4799V55.5199H61.5609C61.6973 55.1591 61.9203 54.8778 62.2299 54.6761C62.5396 54.4716 62.9103 54.3693 63.3422 54.3693C63.7797 54.3693 64.1461 54.4716 64.4416 54.6761C64.7399 54.8807 64.96 55.1619 65.1021 55.5199H65.1703C65.3265 55.1705 65.5751 54.892 65.916 54.6847C66.2569 54.4744 66.6632 54.3693 67.1348 54.3693C67.7285 54.3693 68.2129 54.5554 68.5879 54.9276C68.9657 55.2997 69.1547 55.8608 69.1547 56.6108V61H67.8805V56.7301C67.8805 56.2869 67.7598 55.9659 67.5183 55.767C67.2768 55.5682 66.9885 55.4688 66.6532 55.4688C66.2385 55.4688 65.916 55.5966 65.6859 55.8523C65.4558 56.1051 65.3407 56.4304 65.3407 56.8281V61H64.0708V56.6491C64.0708 56.294 63.96 56.0085 63.7385 55.7926C63.5169 55.5767 63.2285 55.4688 62.8734 55.4688C62.6319 55.4688 62.4089 55.5327 62.2044 55.6605C62.0027 55.7855 61.8393 55.9602 61.7143 56.1847C61.5922 56.4091 61.5311 56.669 61.5311 56.9645V61H60.2569ZM73.6834 61.1321C73.0385 61.1321 72.4831 60.9943 72.0172 60.7188C71.5542 60.4403 71.1962 60.0497 70.9434 59.5469C70.6934 59.0412 70.5684 58.4489 70.5684 57.7699C70.5684 57.0994 70.6934 56.5085 70.9434 55.9972C71.1962 55.4858 71.5485 55.0866 72.0002 54.7997C72.4547 54.5128 72.986 54.3693 73.5939 54.3693C73.9632 54.3693 74.3212 54.4304 74.6678 54.5526C75.0144 54.6747 75.3255 54.8665 75.601 55.1278C75.8766 55.3892 76.0939 55.7287 76.253 56.1463C76.4121 56.5611 76.4917 57.0653 76.4917 57.6591V58.1108H71.2885V57.1562H75.2431C75.2431 56.821 75.1749 56.5241 75.0385 56.2656C74.9022 56.0043 74.7104 55.7983 74.4632 55.6477C74.2189 55.4972 73.932 55.4219 73.6025 55.4219C73.2445 55.4219 72.932 55.5099 72.665 55.6861C72.4007 55.8594 72.1962 56.0866 72.0513 56.3679C71.9093 56.6463 71.8382 56.9489 71.8382 57.2756V58.0213C71.8382 58.4588 71.915 58.831 72.0684 59.1378C72.2246 59.4446 72.4419 59.679 72.7203 59.8409C72.9988 60 73.324 60.0795 73.6962 60.0795C73.9377 60.0795 74.1578 60.0455 74.3567 59.9773C74.5556 59.9062 74.7275 59.8011 74.8723 59.6619C75.0172 59.5227 75.128 59.3509 75.2047 59.1463L76.4107 59.3636C76.3141 59.7187 76.1408 60.0298 75.8908 60.2969C75.6436 60.5611 75.3326 60.767 74.9576 60.9148C74.5854 61.0597 74.1607 61.1321 73.6834 61.1321Z" fill="#C4C1C1"/>
<path opacity="0.2" d="M69.25 88.2501V97.2501H63.25V91.2501H58.75V97.2501H52.75V88.2501C52.7499 88.1516 52.7693 88.054 52.8069 87.963C52.8445 87.8719 52.8997 87.7892 52.9694 87.7195L60.4694 80.2195C60.539 80.1497 60.6217 80.0944 60.7128 80.0567C60.8038 80.0189 60.9014 79.9995 61 79.9995C61.0986 79.9995 61.1962 80.0189 61.2872 80.0567C61.3783 80.0944 61.461 80.1497 61.5306 80.2195L69.0306 87.7195C69.1003 87.7892 69.1555 87.8719 69.1931 87.963C69.2307 88.054 69.2501 88.1516 69.25 88.2501Z" fill="#686868"/>
<path d="M69.5603 87.1887L62.0603 79.6887C61.779 79.4077 61.3977 79.2498 61 79.2498C60.6024 79.2498 60.221 79.4077 59.9397 79.6887L52.4397 87.1887C52.2997 87.3277 52.1888 87.493 52.1133 87.6752C52.0378 87.8574 51.9993 88.0528 52 88.25V97.25C52 97.4489 52.079 97.6397 52.2197 97.7803C52.3603 97.921 52.5511 98 52.75 98H58.75C58.9489 98 59.1397 97.921 59.2803 97.7803C59.421 97.6397 59.5 97.4489 59.5 97.25V92H62.5V97.25C62.5 97.4489 62.579 97.6397 62.7197 97.7803C62.8603 97.921 63.0511 98 63.25 98H69.25C69.4489 98 69.6397 97.921 69.7803 97.7803C69.921 97.6397 70 97.4489 70 97.25V88.25C70.0007 88.0528 69.9622 87.8574 69.8867 87.6752C69.8112 87.493 69.7003 87.3277 69.5603 87.1887ZM68.5 96.5H64V91.25C64 91.0511 63.921 90.8603 63.7803 90.7197C63.6397 90.579 63.4489 90.5 63.25 90.5H58.75C58.5511 90.5 58.3603 90.579 58.2197 90.7197C58.079 90.8603 58 91.0511 58 91.25V96.5H53.5V88.25L61 80.75L68.5 88.25V96.5Z" fill="#686868"/>
</svg>
