<svg width="64" height="108" viewBox="0 0 64 108" fill="none" xmlns="http://www.w3.org/2000/svg">
<rect x="0.5" y="0.5" width="63" height="107" rx="4.5" stroke="#8A38F5" stroke-dasharray="10 5"/>
<path opacity="0.5" d="M41.75 29.5625C41.75 35.75 32 41 32 41C32 41 22.25 35.75 22.25 29.5625C22.25 28.2198 22.7834 26.9322 23.7328 25.9828C24.6822 25.0334 25.9698 24.5 27.3125 24.5C29.4303 24.5 31.2444 25.6541 32 27.5C32.7556 25.6541 34.5697 24.5 36.6875 24.5C38.0302 24.5 39.3178 25.0334 40.2672 25.9828C41.2166 26.9322 41.75 28.2198 41.75 29.5625Z" fill="black"/>
<path d="M36.6875 23.75C34.7516 23.75 33.0566 24.5825 32 25.9897C30.9434 24.5825 29.2484 23.75 27.3125 23.75C25.7715 23.7517 24.294 24.3647 23.2044 25.4544C22.1147 26.544 21.5017 28.0215 21.5 29.5625C21.5 36.125 31.2303 41.4369 31.6447 41.6562C31.7539 41.715 31.876 41.7458 32 41.7458C32.124 41.7458 32.2461 41.715 32.3553 41.6562C32.7697 41.4369 42.5 36.125 42.5 29.5625C42.4983 28.0215 41.8853 26.544 40.7956 25.4544C39.706 24.3647 38.2285 23.7517 36.6875 23.75ZM32 40.1375C30.2881 39.14 23 34.5959 23 29.5625C23.0015 28.4192 23.4563 27.3232 24.2647 26.5147C25.0732 25.7063 26.1692 25.2515 27.3125 25.25C29.1359 25.25 30.6669 26.2213 31.3062 27.7812C31.3628 27.9188 31.4589 28.0365 31.5824 28.1193C31.7059 28.2021 31.8513 28.2463 32 28.2463C32.1487 28.2463 32.2941 28.2021 32.4176 28.1193C32.5411 28.0365 32.6372 27.9188 32.6937 27.7812C33.3331 26.2184 34.8641 25.25 36.6875 25.25C37.8308 25.2515 38.9268 25.7063 39.7353 26.5147C40.5437 27.3232 40.9985 28.4192 41 29.5625C41 34.5884 33.71 39.1391 32 40.1375Z" fill="#F9F9F9"/>
<path d="M41.75 73.5625C41.75 79.75 32 85 32 85C32 85 22.25 79.75 22.25 73.5625C22.25 72.2198 22.7834 70.9322 23.7328 69.9828C24.6822 69.0334 25.9698 68.5 27.3125 68.5C29.4303 68.5 31.2444 69.6541 32 71.5C32.7556 69.6541 34.5697 68.5 36.6875 68.5C38.0302 68.5 39.3178 69.0334 40.2672 69.9828C41.2166 70.9322 41.75 72.2198 41.75 73.5625Z" fill="#871A1A"/>
<path d="M36.6875 67.75C34.7516 67.75 33.0566 68.5825 32 69.9897C30.9434 68.5825 29.2484 67.75 27.3125 67.75C25.7715 67.7517 24.294 68.3647 23.2044 69.4544C22.1147 70.544 21.5017 72.0215 21.5 73.5625C21.5 80.125 31.2303 85.4369 31.6447 85.6562C31.7539 85.715 31.876 85.7458 32 85.7458C32.124 85.7458 32.2461 85.715 32.3553 85.6562C32.7697 85.4369 42.5 80.125 42.5 73.5625C42.4983 72.0215 41.8853 70.544 40.7956 69.4544C39.706 68.3647 38.2285 67.7517 36.6875 67.75ZM32 84.1375C30.2881 83.14 23 78.5959 23 73.5625C23.0015 72.4192 23.4563 71.3232 24.2647 70.5147C25.0732 69.7063 26.1692 69.2515 27.3125 69.25C29.1359 69.25 30.6669 70.2213 31.3062 71.7812C31.3628 71.9188 31.4589 72.0365 31.5824 72.1193C31.7059 72.2021 31.8513 72.2463 32 72.2463C32.1487 72.2463 32.2941 72.2021 32.4176 72.1193C32.5411 72.0365 32.6372 71.9188 32.6937 71.7812C33.3331 70.2184 34.8641 69.25 36.6875 69.25C37.8308 69.2515 38.9268 69.7063 39.7353 70.5147C40.5437 71.3232 40.9985 72.4192 41 73.5625C41 78.5884 33.71 83.1391 32 84.1375Z" fill="#F9F9F9"/>
</svg>
