<svg width="82" height="13" viewBox="0 0 82 13" fill="none" xmlns="http://www.w3.org/2000/svg">
<path d="M27.0819 13.1136V17H25.8077V8.27273H27.0648V11.5199H27.1458C27.2992 11.1676 27.5336 10.8878 27.8489 10.6804C28.1642 10.473 28.5762 10.3693 29.0847 10.3693C29.5336 10.3693 29.9256 10.4616 30.2608 10.6463C30.5989 10.831 30.8603 11.1065 31.0449 11.473C31.2324 11.8366 31.3262 12.2912 31.3262 12.8366V17H30.052V12.9901C30.052 12.5099 29.9284 12.1378 29.6813 11.8736C29.4341 11.6065 29.0904 11.473 28.65 11.473C28.3489 11.473 28.079 11.5369 27.8404 11.6648C27.6046 11.7926 27.4185 11.9801 27.2821 12.2273C27.1486 12.4716 27.0819 12.767 27.0819 13.1136ZM35.7836 17.1321C35.1699 17.1321 34.6344 16.9915 34.177 16.7102C33.7196 16.429 33.3645 16.0355 33.1117 15.5298C32.8588 15.0241 32.7324 14.4332 32.7324 13.7571C32.7324 13.0781 32.8588 12.4844 33.1117 11.9759C33.3645 11.4673 33.7196 11.0724 34.177 10.7912C34.6344 10.5099 35.1699 10.3693 35.7836 10.3693C36.3972 10.3693 36.9327 10.5099 37.3901 10.7912C37.8475 11.0724 38.2026 11.4673 38.4554 11.9759C38.7083 12.4844 38.8347 13.0781 38.8347 13.7571C38.8347 14.4332 38.7083 15.0241 38.4554 15.5298C38.2026 16.0355 37.8475 16.429 37.3901 16.7102C36.9327 16.9915 36.3972 17.1321 35.7836 17.1321ZM35.7878 16.0625C36.1855 16.0625 36.5151 15.9574 36.7765 15.7472C37.0378 15.5369 37.231 15.2571 37.356 14.9077C37.4838 14.5582 37.5478 14.1733 37.5478 13.7528C37.5478 13.3352 37.4838 12.9517 37.356 12.6023C37.231 12.25 37.0378 11.9673 36.7765 11.7543C36.5151 11.5412 36.1855 11.4347 35.7878 11.4347C35.3873 11.4347 35.0549 11.5412 34.7907 11.7543C34.5293 11.9673 34.3347 12.25 34.2069 12.6023C34.0819 12.9517 34.0194 13.3352 34.0194 13.7528C34.0194 14.1733 34.0819 14.5582 34.2069 14.9077C34.3347 15.2571 34.5293 15.5369 34.7907 15.7472C35.0549 15.9574 35.3873 16.0625 35.7878 16.0625ZM40.2569 17V10.4545H41.4799V11.5199H41.5609C41.6973 11.1591 41.9203 10.8778 42.2299 10.6761C42.5396 10.4716 42.9103 10.3693 43.3422 10.3693C43.7797 10.3693 44.1461 10.4716 44.4416 10.6761C44.7399 10.8807 44.96 11.1619 45.1021 11.5199H45.1703C45.3265 11.1705 45.5751 10.892 45.916 10.6847C46.2569 10.4744 46.6632 10.3693 47.1348 10.3693C47.7285 10.3693 48.2129 10.5554 48.5879 10.9276C48.9657 11.2997 49.1547 11.8608 49.1547 12.6108V17H47.8805V12.7301C47.8805 12.2869 47.7598 11.9659 47.5183 11.767C47.2768 11.5682 46.9885 11.4688 46.6532 11.4688C46.2385 11.4688 45.916 11.5966 45.6859 11.8523C45.4558 12.1051 45.3407 12.4304 45.3407 12.8281V17H44.0708V12.6491C44.0708 12.294 43.96 12.0085 43.7385 11.7926C43.5169 11.5767 43.2285 11.4688 42.8734 11.4688C42.6319 11.4688 42.4089 11.5327 42.2044 11.6605C42.0027 11.7855 41.8393 11.9602 41.7143 12.1847C41.5922 12.4091 41.5311 12.669 41.5311 12.9645V17H40.2569ZM53.6834 17.1321C53.0385 17.1321 52.4831 16.9943 52.0172 16.7188C51.5542 16.4403 51.1962 16.0497 50.9434 15.5469C50.6934 15.0412 50.5684 14.4489 50.5684 13.7699C50.5684 13.0994 50.6934 12.5085 50.9434 11.9972C51.1962 11.4858 51.5485 11.0866 52.0002 10.7997C52.4547 10.5128 52.986 10.3693 53.5939 10.3693C53.9632 10.3693 54.3212 10.4304 54.6678 10.5526C55.0144 10.6747 55.3255 10.8665 55.601 11.1278C55.8766 11.3892 56.0939 11.7287 56.253 12.1463C56.4121 12.5611 56.4917 13.0653 56.4917 13.6591V14.1108H51.2885V13.1562H55.2431C55.2431 12.821 55.1749 12.5241 55.0385 12.2656C54.9022 12.0043 54.7104 11.7983 54.4632 11.6477C54.2189 11.4972 53.932 11.4219 53.6025 11.4219C53.2445 11.4219 52.932 11.5099 52.665 11.6861C52.4007 11.8594 52.1962 12.0866 52.0513 12.3679C51.9093 12.6463 51.8382 12.9489 51.8382 13.2756V14.0213C51.8382 14.4588 51.915 14.831 52.0684 15.1378C52.2246 15.4446 52.4419 15.679 52.7203 15.8409C52.9988 16 53.324 16.0795 53.6962 16.0795C53.9377 16.0795 54.1578 16.0455 54.3567 15.9773C54.5556 15.9062 54.7275 15.8011 54.8723 15.6619C55.0172 15.5227 55.128 15.3509 55.2047 15.1463L56.4107 15.3636C56.3141 15.7187 56.1408 16.0298 55.8908 16.2969C55.6436 16.5611 55.3326 16.767 54.9576 16.9148C54.5854 17.0597 54.1607 17.1321 53.6834 17.1321Z" fill="#C4C1C1"/>
</svg>
