<svg width="256" height="65" viewBox="0 0 256 65" fill="none" xmlns="http://www.w3.org/2000/svg">
<rect x="0.5" y="0.5" width="255" height="63.4766" rx="4.5" stroke="#8A38F5" stroke-dasharray="10 5"/>
<path d="M42.1577 25.1196C41.5887 24.51 40.9004 24.0238 40.1355 23.6914C39.3706 23.359 38.5456 23.1875 37.7116 23.1875C36.8776 23.1875 36.0526 23.359 35.2877 23.6914C34.5229 24.0238 33.8345 24.51 33.2655 25.1196C32.7348 25.6776 32.3063 26.3247 31.9999 27.0312C31.6933 26.3254 31.2649 25.679 30.7343 25.1215C30.1653 24.5118 29.4769 24.0257 28.7121 23.6933C27.9472 23.3609 27.1221 23.1894 26.2882 23.1894C25.4542 23.1894 24.6292 23.3609 23.8643 23.6933C23.0994 24.0257 22.4111 24.5118 21.8421 25.1215C21.7798 25.1874 21.7343 25.2673 21.7096 25.3545C21.6849 25.4417 21.6815 25.5336 21.7 25.6223C21.7184 25.7111 21.758 25.7941 21.8154 25.8642C21.8727 25.9344 21.9462 25.9896 22.0296 26.0253L27.8261 28.5471C27.6527 28.579 27.4793 28.6165 27.3068 28.6625C26.475 28.8803 25.6946 29.2608 25.0107 29.782C24.3268 30.3032 23.753 30.9548 23.3224 31.699C22.8889 32.4387 22.6075 33.2575 22.4949 34.1073C22.3822 34.9572 22.4404 35.821 22.6662 36.6481C22.6901 36.7372 22.7357 36.8191 22.7988 36.8864C22.8619 36.9538 22.9406 37.0046 23.028 37.0343C23.0863 37.054 23.1474 37.0641 23.209 37.0643C23.3323 37.0643 23.4522 37.0238 23.5502 36.949L31.4374 30.935V41C31.4374 41.1492 31.4967 41.2922 31.6021 41.3977C31.7076 41.5032 31.8507 41.5625 31.9999 41.5625C32.1491 41.5625 32.2922 41.5032 32.3976 41.3977C32.5031 41.2922 32.5624 41.1492 32.5624 41V30.935L40.4533 36.9472C40.5514 37.022 40.6713 37.0625 40.7946 37.0625C40.8561 37.0623 40.9172 37.0521 40.9755 37.0325C41.0629 37.0027 41.1416 36.9519 41.2047 36.8846C41.2678 36.8172 41.3134 36.7353 41.3374 36.6462C41.5631 35.8192 41.6214 34.9553 41.5087 34.1055C41.396 33.2556 41.1146 32.4368 40.6811 31.6972C40.2505 30.9529 39.6767 30.3013 38.9928 29.7801C38.309 29.2589 37.5286 28.8784 36.6968 28.6606C36.5243 28.6146 36.3508 28.5771 36.1774 28.5453L41.974 26.0234C42.0573 25.9878 42.1308 25.9325 42.1882 25.8624C42.2456 25.7922 42.2852 25.7092 42.3036 25.6205C42.322 25.5317 42.3187 25.4398 42.2939 25.3526C42.2692 25.2654 42.2237 25.1855 42.1615 25.1196H42.1577ZM26.2886 24.3125C26.9699 24.3141 27.6436 24.4553 28.2681 24.7275C28.8926 24.9997 29.4547 25.397 29.9196 25.895C30.6951 26.7125 31.2012 27.7481 31.3699 28.8621L23.2746 25.3437C24.1375 24.6759 25.1975 24.3132 26.2886 24.3125ZM23.5896 35.4997C23.4731 34.3735 23.7187 33.2395 24.2908 32.2625C24.6484 31.6465 25.1243 31.1074 25.6912 30.6762C26.258 30.2449 26.9046 29.9302 27.5936 29.75C28.056 29.6262 28.5325 29.5631 29.0111 29.5625C29.6655 29.5622 30.3144 29.6806 30.9265 29.9122L23.5896 35.4997ZM39.709 32.2625C40.2811 33.2395 40.5267 34.3735 40.4102 35.4997L33.0752 29.9112C34.2807 29.4578 35.6076 29.4451 36.8215 29.8754C38.0354 30.3056 39.0581 31.1511 39.709 32.2625ZM32.6299 28.8621C32.7986 27.7481 33.3047 26.7125 34.0802 25.895C34.5451 25.397 35.1072 24.9997 35.7317 24.7275C36.3562 24.4553 37.0299 24.3141 37.7111 24.3125C38.8023 24.3132 39.8623 24.6759 40.7252 25.3437L32.6299 28.8621Z" fill="black"/>
<path d="M75.5 25.25V22.25C75.5 22.0511 75.579 21.8603 75.7197 21.7197C75.8603 21.579 76.0511 21.5 76.25 21.5C76.4489 21.5 76.6397 21.579 76.7803 21.7197C76.921 21.8603 77 22.0511 77 22.25V25.25C77 25.4489 76.921 25.6397 76.7803 25.7803C76.6397 25.921 76.4489 26 76.25 26C76.0511 26 75.8603 25.921 75.7197 25.7803C75.579 25.6397 75.5 25.4489 75.5 25.25ZM79.25 26C79.4489 26 79.6397 25.921 79.7803 25.7803C79.921 25.6397 80 25.4489 80 25.25V22.25C80 22.0511 79.921 21.8603 79.7803 21.7197C79.6397 21.579 79.4489 21.5 79.25 21.5C79.0511 21.5 78.8603 21.579 78.7197 21.7197C78.579 21.8603 78.5 22.0511 78.5 22.25V25.25C78.5 25.4489 78.579 25.6397 78.7197 25.7803C78.8603 25.921 79.0511 26 79.25 26ZM82.25 26C82.4489 26 82.6397 25.921 82.7803 25.7803C82.921 25.6397 83 25.4489 83 25.25V22.25C83 22.0511 82.921 21.8603 82.7803 21.7197C82.6397 21.579 82.4489 21.5 82.25 21.5C82.0511 21.5 81.8603 21.579 81.7197 21.7197C81.579 21.8603 81.5 22.0511 81.5 22.25V25.25C81.5 25.4489 81.579 25.6397 81.7197 25.7803C81.8603 25.921 82.0511 26 82.25 26ZM91.25 31.25V32C91.2497 32.954 90.8859 33.8719 90.2325 34.5671C89.5792 35.2622 88.6855 35.6822 87.7334 35.7416C87.2218 37.1887 86.3508 38.482 85.2022 39.5H87.5C87.6989 39.5 87.8897 39.579 88.0303 39.7197C88.171 39.8603 88.25 40.0511 88.25 40.25C88.25 40.4489 88.171 40.6397 88.0303 40.7803C87.8897 40.921 87.6989 41 87.5 41H71C70.8011 41 70.6103 40.921 70.4697 40.7803C70.329 40.6397 70.25 40.4489 70.25 40.25C70.25 40.0511 70.329 39.8603 70.4697 39.7197C70.6103 39.579 70.8011 39.5 71 39.5H73.3006C72.3437 38.6546 71.577 37.6158 71.0512 36.4523C70.5253 35.2887 70.2522 34.0269 70.25 32.75V28.25C70.25 28.0511 70.329 27.8603 70.4697 27.7197C70.6103 27.579 70.8011 27.5 71 27.5H87.5C88.4946 27.5 89.4484 27.8951 90.1516 28.5983C90.8549 29.3016 91.25 30.2554 91.25 31.25ZM86.75 29H71.75V32.75C71.7529 34.1582 72.1509 35.5373 72.8986 36.7306C73.6464 37.9239 74.714 38.8834 75.98 39.5H82.52C83.786 38.8834 84.8536 37.9239 85.6014 36.7306C86.3492 35.5373 86.7471 34.1582 86.75 32.75V29ZM89.75 31.25C89.7499 30.7848 89.6055 30.3311 89.3369 29.9514C89.0683 29.5716 88.6886 29.2844 88.25 29.1294V32.75C88.2494 33.221 88.2118 33.6912 88.1375 34.1562C88.6028 34.0188 89.0113 33.7345 89.3019 33.3459C89.5925 32.9574 89.7497 32.4852 89.75 32V31.25Z" fill="black"/>
<path d="M138.5 39.5H137.75V28.25C137.75 28.0511 137.671 27.8603 137.53 27.7197C137.39 27.579 137.199 27.5 137 27.5H131C130.801 27.5 130.61 27.579 130.47 27.7197C130.329 27.8603 130.25 28.0511 130.25 28.25V32H125.75V23.75C125.75 23.5511 125.671 23.3603 125.53 23.2197C125.39 23.079 125.199 23 125 23H119C118.801 23 118.61 23.079 118.47 23.2197C118.329 23.3603 118.25 23.5511 118.25 23.75V39.5H117.5C117.301 39.5 117.11 39.579 116.97 39.7197C116.829 39.8603 116.75 40.0511 116.75 40.25C116.75 40.4489 116.829 40.6397 116.97 40.7803C117.11 40.921 117.301 41 117.5 41H138.5C138.699 41 138.89 40.921 139.03 40.7803C139.171 40.6397 139.25 40.4489 139.25 40.25C139.25 40.0511 139.171 39.8603 139.03 39.7197C138.89 39.579 138.699 39.5 138.5 39.5ZM131.75 29H136.25V39.5H131.75V29ZM130.25 33.5V39.5H125.75V33.5H130.25ZM119.75 24.5H124.25V39.5H119.75V24.5ZM122.75 26.75V28.25C122.75 28.4489 122.671 28.6397 122.53 28.7803C122.39 28.921 122.199 29 122 29C121.801 29 121.61 28.921 121.47 28.7803C121.329 28.6397 121.25 28.4489 121.25 28.25V26.75C121.25 26.5511 121.329 26.3603 121.47 26.2197C121.61 26.079 121.801 26 122 26C122.199 26 122.39 26.079 122.53 26.2197C122.671 26.3603 122.75 26.5511 122.75 26.75ZM122.75 31.25V32.75C122.75 32.9489 122.671 33.1397 122.53 33.2803C122.39 33.421 122.199 33.5 122 33.5C121.801 33.5 121.61 33.421 121.47 33.2803C121.329 33.1397 121.25 32.9489 121.25 32.75V31.25C121.25 31.0511 121.329 30.8603 121.47 30.7197C121.61 30.579 121.801 30.5 122 30.5C122.199 30.5 122.39 30.579 122.53 30.7197C122.671 30.8603 122.75 31.0511 122.75 31.25ZM122.75 35.75V37.25C122.75 37.4489 122.671 37.6397 122.53 37.7803C122.39 37.921 122.199 38 122 38C121.801 38 121.61 37.921 121.47 37.7803C121.329 37.6397 121.25 37.4489 121.25 37.25V35.75C121.25 35.5511 121.329 35.3603 121.47 35.2197C121.61 35.079 121.801 35 122 35C122.199 35 122.39 35.079 122.53 35.2197C122.671 35.3603 122.75 35.5511 122.75 35.75ZM127.25 37.25V35.75C127.25 35.5511 127.329 35.3603 127.47 35.2197C127.61 35.079 127.801 35 128 35C128.199 35 128.39 35.079 128.53 35.2197C128.671 35.3603 128.75 35.5511 128.75 35.75V37.25C128.75 37.4489 128.671 37.6397 128.53 37.7803C128.39 37.921 128.199 38 128 38C127.801 38 127.61 37.921 127.47 37.7803C127.329 37.6397 127.25 37.4489 127.25 37.25ZM133.25 37.25V35.75C133.25 35.5511 133.329 35.3603 133.47 35.2197C133.61 35.079 133.801 35 134 35C134.199 35 134.39 35.079 134.53 35.2197C134.671 35.3603 134.75 35.5511 134.75 35.75V37.25C134.75 37.4489 134.671 37.6397 134.53 37.7803C134.39 37.921 134.199 38 134 38C133.801 38 133.61 37.921 133.47 37.7803C133.329 37.6397 133.25 37.4489 133.25 37.25ZM133.25 32.75V31.25C133.25 31.0511 133.329 30.8603 133.47 30.7197C133.61 30.579 133.801 30.5 134 30.5C134.199 30.5 134.39 30.579 134.53 30.7197C134.671 30.8603 134.75 31.0511 134.75 31.25V32.75C134.75 32.9489 134.671 33.1397 134.53 33.2803C134.39 33.421 134.199 33.5 134 33.5C133.801 33.5 133.61 33.421 133.47 33.2803C133.329 33.1397 133.25 32.9489 133.25 32.75Z" fill="black"/>
<path d="M172.25 34.0053C172.449 34.0053 172.64 33.9263 172.78 33.7856C172.921 33.645 173 33.4542 173 33.2553V32H179V33.4334C179 33.6323 179.079 33.8231 179.22 33.9638C179.36 34.1044 179.551 34.1834 179.75 34.1834C179.949 34.1834 180.14 34.1044 180.28 33.9638C180.421 33.8231 180.5 33.6323 180.5 33.4334V23C180.5 22.8011 180.421 22.6103 180.28 22.4697C180.14 22.329 179.949 22.25 179.75 22.25C179.551 22.25 179.36 22.329 179.22 22.4697C179.079 22.6103 179 22.8011 179 23V24.5H173V23C173 22.8011 172.921 22.6103 172.78 22.4697C172.64 22.329 172.449 22.25 172.25 22.25C172.051 22.25 171.86 22.329 171.72 22.4697C171.579 22.6103 171.5 22.8011 171.5 23V33.2553C171.5 33.4542 171.579 33.645 171.72 33.7856C171.86 33.9263 172.051 34.0053 172.25 34.0053ZM173 30.5V29H179V30.5H173ZM179 26V27.5H173V26H179ZM166.25 35.75C166.25 35.5511 166.329 35.3603 166.47 35.2197C166.61 35.079 166.801 35 167 35C168.352 35 169.08 35.4856 169.666 35.8756C170.187 36.2244 170.602 36.5 171.5 36.5C172.398 36.5 172.812 36.2244 173.334 35.8756C173.919 35.4856 174.646 35 175.999 35C177.352 35 178.08 35.4856 178.665 35.8756C179.188 36.2244 179.603 36.5 180.5 36.5C181.397 36.5 181.812 36.2244 182.334 35.8756C182.92 35.4856 183.646 35 185 35C185.199 35 185.39 35.079 185.53 35.2197C185.671 35.3603 185.75 35.5511 185.75 35.75C185.75 35.9489 185.671 36.1397 185.53 36.2803C185.39 36.421 185.199 36.5 185 36.5C184.102 36.5 183.688 36.7756 183.166 37.1244C182.58 37.5144 181.854 38 180.5 38C179.146 38 178.419 37.5144 177.834 37.1244C177.312 36.7756 176.897 36.5 176 36.5C175.103 36.5 174.688 36.7756 174.166 37.1244C173.581 37.5144 172.854 38 171.501 38C170.148 38 169.421 37.5144 168.835 37.1244C168.312 36.7756 167.898 36.5 167 36.5C166.801 36.5 166.61 36.421 166.47 36.2803C166.329 36.1397 166.25 35.9489 166.25 35.75ZM185.75 39.5C185.75 39.6989 185.671 39.8897 185.53 40.0303C185.39 40.171 185.199 40.25 185 40.25C184.102 40.25 183.688 40.5256 183.166 40.8744C182.58 41.2644 181.854 41.75 180.5 41.75C179.146 41.75 178.419 41.2644 177.834 40.8744C177.312 40.5256 176.897 40.25 176 40.25C175.103 40.25 174.688 40.5256 174.166 40.8744C173.581 41.2644 172.854 41.75 171.501 41.75C170.148 41.75 169.421 41.2644 168.835 40.8744C168.312 40.5256 167.898 40.25 167 40.25C166.801 40.25 166.61 40.171 166.47 40.0303C166.329 39.8897 166.25 39.6989 166.25 39.5C166.25 39.3011 166.329 39.1103 166.47 38.9697C166.61 38.829 166.801 38.75 167 38.75C168.352 38.75 169.08 39.2356 169.666 39.6256C170.187 39.9744 170.602 40.25 171.5 40.25C172.398 40.25 172.812 39.9744 173.334 39.6256C173.919 39.2356 174.646 38.75 175.999 38.75C177.352 38.75 178.08 39.2356 178.665 39.6256C179.188 39.9744 179.603 40.25 180.5 40.25C181.397 40.25 181.812 39.9744 182.334 39.6256C182.92 39.2356 183.646 38.75 185 38.75C185.199 38.75 185.39 38.829 185.53 38.9697C185.671 39.1103 185.75 39.3011 185.75 39.5Z" fill="black"/>
<path d="M233 40.9999H229.151L228.56 36.8637L228.864 37.0428C229.034 37.1428 229.221 37.2083 229.416 37.2358C229.612 37.2632 229.81 37.2519 230.001 37.2025C230.192 37.1531 230.371 37.0667 230.528 36.9481C230.685 36.8295 230.818 36.681 230.918 36.5112L232.043 34.6043C232.143 34.4346 232.208 34.2468 232.236 34.0516C232.263 33.8565 232.252 33.6579 232.203 33.4672C232.153 33.2764 232.067 33.0973 231.948 32.9399C231.83 32.7826 231.681 32.6502 231.511 32.5503L228.23 30.6181L232.045 24.1371C232.145 23.9674 232.21 23.7796 232.238 23.5844C232.265 23.3893 232.254 23.1907 232.204 23C232.155 22.8092 232.069 22.6301 231.95 22.4728C231.831 22.3154 231.683 22.183 231.513 22.0831L229.606 20.9581C229.436 20.8581 229.249 20.7925 229.054 20.7651C228.858 20.7377 228.66 20.749 228.469 20.7983C228.278 20.8477 228.099 20.9341 227.942 21.0528C227.785 21.1714 227.652 21.3198 227.552 21.4896L225.62 24.7709L219.136 20.9581C218.966 20.8581 218.779 20.7925 218.584 20.7651C218.388 20.7377 218.19 20.749 217.999 20.7983C217.808 20.8477 217.629 20.9341 217.472 21.0528C217.315 21.1714 217.182 21.3198 217.082 21.4896L215.957 23.3956C215.857 23.5654 215.791 23.7533 215.764 23.9485C215.736 24.1437 215.748 24.3424 215.797 24.5333C215.846 24.7241 215.933 24.9034 216.052 25.0608C216.17 25.2182 216.319 25.3506 216.489 25.4506L219.77 27.3828L215.957 33.8637C215.857 34.0335 215.792 34.2213 215.764 34.4164C215.737 34.6115 215.748 34.8101 215.797 35.0008C215.847 35.1916 215.933 35.3708 216.052 35.5281C216.17 35.6854 216.319 35.8178 216.489 35.9178L218.396 37.0428C218.693 37.2212 219.045 37.2877 219.388 37.2303L218.849 40.9999H215C214.801 40.9999 214.61 41.079 214.47 41.2196C214.329 41.3603 214.25 41.551 214.25 41.7499C214.25 41.9489 214.329 42.1396 214.47 42.2803C214.61 42.4209 214.801 42.4999 215 42.4999H233C233.199 42.4999 233.39 42.4209 233.53 42.2803C233.671 42.1396 233.75 41.9489 233.75 41.7499C233.75 41.551 233.671 41.3603 233.53 41.2196C233.39 41.079 233.199 40.9999 233 40.9999ZM230.75 33.8431L229.625 35.7499L223.144 31.9353L224.269 30.0274L230.75 33.8431ZM228.843 22.2499L230.75 23.3749L226.935 29.8568L225.031 28.7346L228.843 22.2499ZM217.25 24.1578L218.375 22.2499L224.857 26.0656L223.732 27.9734L217.25 24.1578ZM219.157 35.7499L217.25 34.6249L221.065 28.1431L222.973 29.2681L219.157 35.7499ZM220.364 40.9999L221.188 35.2624L222.385 33.2281L226.906 35.8906L227.637 40.9999H220.364Z" fill="black"/>
</svg>
